<?xml version="1.0" encoding="UTF-8" standalone="no"?>
<svg
   width="24"
   height="24"
   viewBox="0 0 24 24"
   fill="none"
   version="1.1"
   id="svg717"
   sodipodi:docname="check-o.svg"
   xmlns:inkscape="http://www.inkscape.org/namespaces/inkscape"
   xmlns:sodipodi="http://sodipodi.sourceforge.net/DTD/sodipodi-0.dtd"
   xmlns="http://www.w3.org/2000/svg"
   xmlns:svg="http://www.w3.org/2000/svg">
  <defs
     id="defs721" />
  <sodipodi:namedview
     id="namedview719"
     pagecolor="#505050"
     bordercolor="#eeeeee"
     borderopacity="1"
     inkscape:showpageshadow="0"
     inkscape:pageopacity="0"
     inkscape:pagecheckerboard="0"
     inkscape:deskcolor="#505050"
     showgrid="false" />
  <path
     d="M 10.2426,16.3137 6,12.071 l 1.41421,-1.4142 2.82839,2.8285 5.6569,-5.6569 1.4142,1.41422 z"
     fill="currentColor"
     id="path713"
     style="fill:#ffffff;fill-opacity:0" />
  <path
     fill-rule="evenodd"
     clip-rule="evenodd"
     d="M 1,12 C 1,5.92487 5.92487,1 12,1 18.0751,1 23,5.92487 23,12 23,18.0751 18.0751,23 12,23 5.92487,23 1,18.0751 1,12 Z m 11,9 C 7.02944,21 3,16.9706 3,12 3,7.02944 7.02944,3 12,3 c 4.9706,0 9,4.02944 9,9 0,4.9706 -4.0294,9 -9,9 z"
     fill="currentColor"
     id="path715" />
  <path
     style="fill:#000000;fill-opacity:1;stroke:#000000;stroke-width:0.0446097"
     d="M 11.174721,20.940475 C 8.7752708,20.711303 6.527688,19.506021 5.035343,17.64819 2.6068207,14.624905 2.3551428,10.532153 4.3954593,7.2424856 5.084918,6.1308492 6.1309862,5.084833 7.2428588,4.3952278 10.192076,2.5660652 13.808065,2.5661531 16.757514,4.3954593 c 1.111482,0.6893625 2.157664,1.735545 2.847027,2.8470263 1.831923,2.9536684 1.829399,6.5654294 -0.0067,9.5257604 -1.141653,1.840724 -3.050536,3.27375 -5.143804,3.861529 -1.109157,0.311446 -2.194705,0.414295 -3.27936,0.3107 z M 16.62813,8.5318184 15.903306,7.8069948 13.081655,10.628383 10.260004,13.449771 8.8437988,12.033566 7.4275932,10.61736 6.702817,11.342136 l -0.724776,0.724776 2.1409864,2.141335 2.1409866,2.141335 3.54647,-3.54647 3.546469,-3.5464699 z"
     id="path1166" />
  <path
     style="fill:#000000;fill-opacity:1;stroke:#000000;stroke-width:0.0446097"
     d="M 11.184458,22.947302 C 8.5626531,22.758515 6.0295548,21.574094 4.1669958,19.666092 2.5633557,18.023326 1.5496979,16.028644 1.1617539,13.752359 0.9856154,12.718855 0.98572564,11.280629 1.1620226,10.2461 1.6883503,7.1575552 3.4242308,4.5052185 6.0378504,2.7960838 8.6517109,1.0867914 11.886467,0.58681522 14.921933,1.4229259 c 1.836823,0.5059476 3.424333,1.4356362 4.799755,2.8108646 0.71422,0.714119 0.985371,1.0444087 1.486676,1.8109222 1.68831,2.5814869 2.191416,5.7771413 1.387044,8.8103063 -0.798204,3.009904 -2.973697,5.63643 -5.814763,7.020305 -1.272523,0.619842 -2.626792,0.975623 -4.095346,1.075891 -0.70834,0.04836 -0.777347,0.04818 -1.500841,-0.0039 z m 1.217029,-1.958454 c 0.01765,-0.02856 -0.126808,-0.04461 -0.401487,-0.04461 -0.274679,0 -0.419137,0.01605 -0.401487,0.04461 0.01516,0.02454 0.195833,0.04461 0.401487,0.04461 0.205654,0 0.386323,-0.02007 0.401487,-0.04461 z m -0.874686,-0.01967 c -0.01082,-0.01082 -0.139628,-0.02929 -0.286246,-0.04104 -1.071344,-0.0859 -2.3908432,-0.47958 -3.404489,-1.015739 C 5.3976045,18.622597 3.6728426,16.260016 3.1833003,13.539033 3.0687894,12.902557 3.063147,12.840291 3.0592423,12.170015 c -0.00182,-0.312047 -0.022243,-0.555528 -0.047934,-0.571405 -0.1127457,-0.06968 -0.00884,1.405555 0.1562187,2.217881 0.6595155,3.245843 3.1193235,5.921366 6.2842418,6.835343 0.3638695,0.10508 1.1103602,0.26467 1.4329892,0.306355 0.1988,0.02568 0.664713,0.03366 0.642043,0.01099 z m 2.271361,-0.132943 c 3.546521,-0.720871 6.31708,-3.492652 7.038946,-7.042051 0.101764,-0.500372 0.196299,-1.42291 0.140428,-1.370394 -0.01305,0.01227 -0.04604,0.229635 -0.07331,0.483039 -0.33195,3.084557 -2.19331,5.747864 -4.978572,7.123539 -0.811211,0.400666 -1.763644,0.700644 -2.609666,0.821938 -0.184015,0.02638 -0.455018,0.06716 -0.60223,0.09062 -0.250465,0.03991 -0.241613,0.04138 0.137804,0.02298 0.223004,-0.01082 0.648975,-0.06917 0.946603,-0.129664 z M 13.851272,12.803003 17.3975,9.2565647 16.650407,8.5094715 15.903313,7.7623778 13.08166,10.583769 10.260006,13.40516 8.8437981,11.988951 7.4275898,10.572743 l -0.7470807,0.747081 -0.7470808,0.74708 2.1409191,2.141268 c 1.1775056,1.177698 2.1611196,2.141268 2.1858086,2.141268 0.02469,0 1.640692,-1.595897 3.591116,-3.546437 z m 7.182187,-0.805638 c 0,-0.243183 -0.0162,-0.371804 -0.04461,-0.354244 -0.04918,0.0304 -0.06241,0.658779 -0.01487,0.706319 0.05528,0.05528 0.05948,0.03045 0.05948,-0.352075 z m -0.05832,-0.833798 c -0.01494,-0.226952 -0.07706,-0.657941 -0.13803,-0.957755 C 20.11449,6.6527197 17.34728,3.8855098 13.794186,3.1628921 13.288587,3.0600649 12.372875,2.9669363 12.423792,3.023522 c 0.01227,0.013634 0.162825,0.035876 0.334572,0.049428 0.171748,0.013552 0.533572,0.064843 0.804055,0.1139813 3.702247,0.6725798 6.581638,3.5595346 7.254978,7.2740357 0.08951,0.493783 0.100203,0.579307 0.118526,0.947955 0.0046,0.09201 0.02138,0.167286 0.03735,0.167286 0.01597,0 0.01681,-0.185688 0.0019,-0.412639 z M 3.0740561,11.2184 C 3.1110482,10.770422 3.2627652,9.9912633 3.4085724,9.5004575 4.2811825,6.5631413 6.5631413,4.2811825 9.5004575,3.4085724 10.005385,3.2585698 10.778974,3.1094559 11.241636,3.0729497 c 0.171747,-0.013552 0.322305,-0.035794 0.334572,-0.049428 0.046,-0.051126 -0.842513,0.032499 -1.2795,0.1204239 C 9.0601811,3.3927434 8.0077584,3.8210082 7.0329515,4.4720735 5.0119448,5.8218874 3.6415419,7.8512757 3.1637632,10.201838 c -0.1040303,0.511806 -0.1949503,1.379069 -0.1393084,1.32883 0.014154,-0.01278 0.036475,-0.153301 0.049601,-0.312268 z M 12.379182,3.0111524 c 0,-0.026241 -0.156134,-0.04461 -0.379182,-0.04461 -0.223048,0 -0.379182,0.018369 -0.379182,0.04461 0,0.026241 0.156134,0.04461 0.379182,0.04461 0.223048,0 0.379182,-0.018369 0.379182,-0.04461 z"
     id="path1168" />
  <path
     style="fill:#000000;fill-opacity:1;stroke:#000000;stroke-width:0.0446097"
     d="M 11.330855,22.969873 C 10.127312,22.84876 9.4470027,22.716778 8.6194358,22.443851 6.5809463,21.771566 4.7963764,20.54155 3.4592244,18.887172 0.21290663,14.870695 0.20635767,9.1500129 3.4434755,5.1301115 6.3816995,1.4813807 11.21004,0.10817911 15.680297,1.6499047 c 1.024805,0.35344 2.277796,1.0580306 3.189591,1.7935926 0.535966,0.4323738 1.459807,1.3716902 1.836265,1.8670264 1.993819,2.6234222 2.721613,5.9392633 2.001898,9.1206703 -1.008967,4.460006 -4.737629,7.856167 -9.280542,8.452955 -0.532517,0.06996 -1.756179,0.119986 -2.096654,0.08572 z m 0.892193,-1.981025 C 12.207885,20.964312 12.107513,20.944238 12,20.944238 c -0.107513,0 -0.207885,0.02007 -0.223048,0.04461 -0.01713,0.02772 0.06733,0.04461 0.223048,0.04461 0.155719,0 0.240179,-0.01689 0.223048,-0.04461 z m -0.992565,-0.02955 c -0.03067,-0.01237 -0.08085,-0.01237 -0.111524,0 -0.03067,0.01238 -0.0056,0.0225 0.05576,0.0225 0.06134,0 0.08643,-0.01012 0.05576,-0.0225 z m -0.289963,-0.04582 c -0.04294,-0.01122 -0.113197,-0.01122 -0.156133,0 -0.04294,0.01122 -0.0078,0.0204 0.07807,0.0204 0.08587,0 0.121003,-0.0092 0.07807,-0.0204 z m 2.253637,0.0015 c -0.0302,-0.01222 -0.09042,-0.01296 -0.133829,-0.0017 -0.0434,0.01131 -0.01869,0.02131 0.05491,0.02222 0.07361,9.11e-4 0.109118,-0.0083 0.07892,-0.02056 z m -2.588209,-0.04489 c -0.03067,-0.01237 -0.08085,-0.01237 -0.111524,0 -0.03067,0.01238 -0.0056,0.0225 0.05576,0.0225 0.06134,0 0.08643,-0.01013 0.05576,-0.0225 z m 2.900477,2.68e-4 c -0.0302,-0.01222 -0.09042,-0.01296 -0.133829,-0.0017 -0.0434,0.01131 -0.01869,0.02131 0.05491,0.02222 0.07361,9.1e-4 0.109118,-0.0083 0.07892,-0.02056 z m -3.112373,-0.03853 c -0.167689,-0.06072 -0.379182,-0.09719 -0.379182,-0.06539 0,0.02093 0.0552,0.04641 0.122676,0.05664 0.159486,0.02416 0.313573,0.02942 0.256506,0.0088 z m 3.501859,-0.02141 c 0.08739,-0.02799 0.09222,-0.03554 0.0223,-0.03488 -0.04907,4.59e-4 -0.149443,0.01616 -0.223049,0.03488 -0.12021,0.03059 -0.12248,0.03414 -0.0223,0.03488 0.06134,4.55e-4 0.16171,-0.01524 0.223049,-0.03488 z m -3.9377324,-0.07156 c -0.014824,-0.01482 -0.0533,-0.01641 -0.085502,-0.0035 -0.035587,0.01424 -0.025016,0.02481 0.026952,0.02695 0.047026,0.0019 0.073374,-0.0086 0.05855,-0.02343 z m 4.1933084,0 c -0.01482,-0.01482 -0.0533,-0.01641 -0.0855,-0.0035 -0.03559,0.01424 -0.02502,0.02481 0.02695,0.02695 0.04703,0.0019 0.07337,-0.0086 0.05855,-0.02343 z m -4.3633828,-0.0349 C 9.777881,20.694457 9.5286245,20.606433 9.2342007,20.508333 8.2047386,20.165322 7.3577442,19.721154 6.5447135,19.097951 6.0778314,18.740077 5.2557317,17.923561 4.9227357,17.486989 4.2735779,16.635915 3.7054444,15.542157 3.4298948,14.613005 3.3893309,14.476224 3.348256,14.385958 3.3386173,14.412414 c -0.032857,0.09018 0.3005545,0.976537 0.5860021,1.557846 1.0649964,2.168848 2.929512,3.80106 5.220362,4.569946 0.4742668,0.15918 0.7002067,0.216703 0.6431228,0.163737 z m 4.5418218,-0.0097 c -0.01482,-0.01482 -0.0533,-0.01641 -0.0855,-0.0035 -0.03559,0.01424 -0.02502,0.02481 0.02695,0.02695 0.04702,0.0019 0.07337,-0.0086 0.05855,-0.02343 z m 0.598842,-0.176826 c 1.311941,-0.452412 2.426534,-1.153404 3.430887,-2.157757 0.785644,-0.785643 1.300396,-1.508931 1.763989,-2.478614 0.245491,-0.513486 0.566525,-1.386741 0.539554,-1.467656 -0.0086,-0.02592 -0.07012,0.123065 -0.136621,0.331081 -0.293814,0.919049 -0.76799,1.835864 -1.360752,2.630999 -0.335233,0.449683 -1.150577,1.284648 -1.589617,1.627872 -0.88195,0.689472 -1.93684,1.249682 -2.933085,1.557645 -0.236479,0.0731 -0.315964,0.115598 -0.216214,0.115598 0.02216,0 0.247998,-0.07163 0.501859,-0.159168 z M 13.828963,12.780702 17.352882,9.2565712 16.628094,8.5317832 15.903306,7.8069948 13.081655,10.628383 10.260004,13.449771 8.8437988,12.033566 7.4275932,10.61736 6.7028181,11.342135 5.9780427,12.06691 8.096652,14.185871 c 1.1652348,1.165429 2.13881,2.118962 2.163501,2.118962 0.02469,0 1.630655,-1.585859 3.56881,-3.524131 z M 3.3092839,14.244424 c -0.014241,-0.03559 -0.024811,-0.02502 -0.026952,0.02695 -0.00194,0.04702 0.00861,0.07337 0.02343,0.05855 0.014823,-0.01482 0.016408,-0.0533 0.00352,-0.0855 z m 17.4119061,0.03067 c 0,-0.0368 -0.0079,-0.06691 -0.01753,-0.06691 -0.0096,0 -0.02909,0.03011 -0.04321,0.06691 -0.01412,0.0368 -0.0062,0.06691 0.01753,0.06691 0.02376,0 0.04321,-0.03011 0.04321,-0.06691 z M 3.2646742,14.065985 c -0.014241,-0.03559 -0.024811,-0.02502 -0.026952,0.02695 -0.00194,0.04703 0.00861,0.07337 0.02343,0.05855 0.014823,-0.01482 0.016408,-0.0533 0.00352,-0.0855 z m 17.4869888,0 c -0.01424,-0.03559 -0.02481,-0.02502 -0.02695,0.02695 -0.0019,0.04703 0.0086,0.07337 0.02343,0.05855 0.01482,-0.01482 0.01641,-0.0533 0.0035,-0.0855 z M 3.2200646,13.887546 c -0.014241,-0.03559 -0.024811,-0.02502 -0.026952,0.02695 -0.00194,0.04703 0.00861,0.07337 0.02343,0.05855 0.014823,-0.01482 0.016408,-0.0533 0.00352,-0.0855 z m 17.6131564,-0.08386 c 0.04232,-0.250514 0.0025,-0.264784 -0.05373,-0.01923 -0.02526,0.110373 -0.0304,0.200678 -0.01142,0.200678 0.01898,0 0.0483,-0.08165 0.06515,-0.181444 z M 3.202054,13.715703 c -0.013087,-0.05004 -0.033762,-0.08102 -0.045944,-0.06884 -0.024134,0.02413 0.018495,0.159827 0.05021,0.159827 0.010741,0 0.00882,-0.04095 -0.00427,-0.09099 z M 3.153718,13.460967 c -0.012925,-0.06747 -0.03211,-0.09692 -0.042632,-0.06544 -0.018975,0.05677 0.014969,0.188119 0.048613,0.188119 0.00964,0 0.00694,-0.0552 -0.00598,-0.122676 z m 17.74591,-0.03346 c 0,-0.06134 -0.0077,-0.111524 -0.0171,-0.111524 -0.0094,0 -0.0267,0.05019 -0.03842,0.111524 -0.01173,0.06134 -0.004,0.111524 0.01711,0.111524 0.02113,0 0.03842,-0.05018 0.03842,-0.111524 z m 0.03557,-0.340579 c -0.01405,-0.08929 -0.02033,-0.08301 -0.04087,0.04087 -0.0147,0.08865 -0.0082,0.130265 0.0166,0.105516 0.02248,-0.02248 0.0334,-0.08835 0.02427,-0.146382 z m -17.8498871,-0.0051 c -0.012375,-0.03067 -0.022501,-0.0056 -0.022501,0.05576 0,0.06134 0.010125,0.08643 0.022501,0.05576 0.012375,-0.03067 0.012375,-0.08085 0,-0.111525 z m -0.042143,-0.512397 c -0.010254,-0.06781 -0.018917,-0.02292 -0.019252,0.09976 -3.346e-4,0.122677 0.00805,0.178157 0.018643,0.12329 0.010589,-0.05487 0.010863,-0.155239 6.09e-4,-0.223048 z m 17.9306181,0.11091 c -0.01237,-0.03067 -0.0225,-0.0056 -0.0225,0.05576 0,0.06134 0.01013,0.08643 0.0225,0.05576 0.01237,-0.03067 0.01237,-0.08085 0,-0.111525 z M 3.0174608,11.792 c -0.039349,-0.136645 -0.043202,-0.12627 -0.046895,0.126284 -0.00221,0.15134 0.011033,0.311934 0.029434,0.356878 0.052353,0.127867 0.068082,-0.307371 0.017461,-0.483162 z m 18.0058082,0.08532 -0.01584,-0.144981 -0.03651,0.166993 c -0.02008,0.09185 -0.02015,0.222329 -1.78e-4,0.289963 l 0.03635,0.12297 0.016,-0.144982 c 0.0088,-0.07974 0.0089,-0.210223 1.78e-4,-0.289963 z m -0.04812,-0.6906 c -0.01131,-0.0434 -0.02131,-0.01869 -0.02222,0.05491 -9.1e-4,0.07361 0.0083,0.109118 0.02056,0.07892 0.01222,-0.0302 0.01296,-0.09043 0.0017,-0.133829 z M 3.0866762,10.829845 c -0.011311,-0.0434 -0.021308,-0.01869 -0.022217,0.05491 -9.092e-4,0.07361 0.00834,0.109118 0.020565,0.07892 0.01222,-0.0302 0.012963,-0.09042 0.00165,-0.133829 z m 17.8437028,-0.04546 c -0.01122,-0.04294 -0.0204,-0.0078 -0.0204,0.07807 0,0.08587 0.0092,0.121003 0.0204,0.07807 0.01122,-0.04294 0.01122,-0.113197 0,-0.156133 z M 3.1312858,10.517578 c -0.011311,-0.0434 -0.021308,-0.01869 -0.022217,0.05491 -9.092e-4,0.07361 0.00834,0.109118 0.020564,0.07892 0.01222,-0.0302 0.012963,-0.09043 0.00165,-0.133829 z m 17.7546472,0 c -0.01131,-0.0434 -0.02131,-0.01869 -0.02222,0.05491 -9.1e-4,0.07361 0.0083,0.109118 0.02057,0.07892 0.01222,-0.0302 0.01296,-0.09043 0.0017,-0.133829 z M 3.2005093,10.304833 c 0.011726,-0.06134 0.00403,-0.111524 -0.017104,-0.111524 -0.021133,0 -0.038424,0.05019 -0.038424,0.111524 0,0.06134 0.0077,0.111524 0.017104,0.111524 0.00941,0 0.026698,-0.05019 0.038423,-0.111524 z m 17.6545097,0 c 0,-0.06134 -0.01729,-0.111524 -0.03842,-0.111524 -0.02113,0 -0.02883,0.05019 -0.0171,0.111524 0.01173,0.06134 0.02902,0.111524 0.03842,0.111524 0.0094,0 0.0171,-0.05019 0.0171,-0.111524 z M 3.2503328,10.081784 c 0.014123,-0.0368 0.00623,-0.06691 -0.017532,-0.06691 -0.023765,0 -0.04321,0.03011 -0.04321,0.06691 0,0.0368 0.00789,0.06691 0.017532,0.06691 0.00964,0 0.029087,-0.03011 0.04321,-0.06691 z m 17.5459402,-0.03067 c -0.01424,-0.03559 -0.02481,-0.02502 -0.02695,0.02695 -0.0019,0.04703 0.0086,0.07337 0.02343,0.05855 0.01482,-0.01482 0.01641,-0.0533 0.0035,-0.0855 z M 3.2646742,9.8726766 c -0.014241,-0.035587 -0.024811,-0.025016 -0.026952,0.026952 -0.00194,0.047026 0.00861,0.073374 0.02343,0.05855 0.014823,-0.014824 0.016408,-0.0533 0.00352,-0.085502 z m 17.4869888,0 c -0.01424,-0.035587 -0.02481,-0.025016 -0.02695,0.026952 -0.0019,0.047026 0.0086,0.073374 0.02343,0.05855 0.01482,-0.014824 0.01641,-0.0533 0.0035,-0.085502 z M 3.3092839,9.6942379 c -0.014241,-0.035586 -0.024811,-0.025016 -0.026952,0.026952 -0.00194,0.047026 0.00861,0.073374 0.02343,0.05855 0.014823,-0.014824 0.016408,-0.0533 0.00352,-0.085502 z m 17.3977691,0 c -0.01424,-0.035586 -0.02481,-0.025016 -0.02695,0.026952 -0.0019,0.047026 0.0086,0.073374 0.02343,0.05855 0.01482,-0.014824 0.01641,-0.0533 0.0035,-0.085502 z M 3.4294337,9.3457249 3.4564673,9.1895911 3.3933375,9.3457249 c -0.034721,0.085874 -0.064047,0.1862454 -0.065167,0.2230483 -0.00357,0.1173502 0.070621,-0.046073 0.1012632,-0.2230483 z M 20.518576,9.0745753 C 19.739011,6.8140845 18.114805,4.9748151 15.97026,3.9240091 15.444255,3.6662718 14.54407,3.3198607 14.415757,3.3258023 c -0.02829,0.00131 0.199485,0.090509 0.506176,0.1982191 2.6411,0.9275565 4.679551,2.9945892 5.580938,5.6591892 0.08167,0.2414132 0.154683,0.420335 0.16226,0.3976041 0.0076,-0.022731 -0.05837,-0.2505386 -0.146555,-0.5062394 z M 3.5680777,8.9553903 C 4.215593,7.203977 5.4719362,5.5979451 6.9938052,4.5761508 7.6743752,4.119211 8.4091682,3.7550933 9.2118959,3.4770032 9.4449814,3.396255 9.6125375,3.3286655 9.584243,3.3268042 9.4749323,3.3196136 8.5866174,3.6527742 8.1189591,3.8763559 7.1492757,4.3399494 6.4259884,4.8547011 5.6403448,5.6403448 4.9016051,6.379084 4.3936891,7.076305 3.946857,7.9650098 3.782477,8.2919456 3.4572491,9.0746387 3.4572491,9.1432996 c 0,0.070426 0.041053,8.208e-4 0.1108286,-0.1879093 z M 9.7797399,3.2964684 c -0.014824,-0.014823 -0.0533,-0.016408 -0.085502,-0.00352 -0.035586,0.01424 -0.025016,0.024811 0.026952,0.026952 0.047026,0.00194 0.073374,-0.00861 0.05855,-0.02343 z m 4.5501861,0 c -0.01482,-0.014823 -0.0533,-0.016408 -0.0855,-0.00352 -0.03559,0.01424 -0.02502,0.024811 0.02695,0.026952 0.04702,0.00194 0.07337,-0.00861 0.05855,-0.02343 z m -4.3717474,-0.04461 c -0.014824,-0.014823 -0.0533,-0.016408 -0.085502,-0.00352 -0.035587,0.014241 -0.025016,0.024811 0.026952,0.026952 0.047026,0.00194 0.073374,-0.00861 0.05855,-0.02343 z M 10.662615,3.108712 C 10.635355,3.081457 10.01487,3.2003 10.01487,3.232776 c 0,0.015893 0.149673,-0.00159 0.332607,-0.038849 0.182934,-0.03726 0.324746,-0.075607 0.315138,-0.085215 z m 3.488872,0.1431467 c -0.01482,-0.014823 -0.0533,-0.016408 -0.0855,-0.00352 -0.03559,0.014241 -0.02502,0.024811 0.02695,0.026952 0.04703,0.00194 0.07337,-0.00861 0.05855,-0.02343 z m -0.344796,-0.062268 c 0,-0.024535 -0.0552,-0.042609 -0.122676,-0.040163 l -0.122677,0.00445 0.111524,0.035716 c 0.06134,0.019644 0.116543,0.037717 0.122677,0.040163 0.0061,0.00245 0.01115,-0.015628 0.01115,-0.040163 z m 0.166357,0.017658 c -0.01482,-0.014823 -0.0533,-0.016408 -0.0855,-0.00352 -0.03559,0.014241 -0.02502,0.024811 0.02695,0.026952 0.04703,0.00194 0.07337,-0.00861 0.05855,-0.02343 z m -0.466623,-0.091529 c -0.0302,-0.01222 -0.09042,-0.012964 -0.133829,-0.00165 -0.0434,0.011311 -0.01869,0.021308 0.05491,0.022217 0.07361,9.091e-4 0.109118,-0.00834 0.07892,-0.020564 z m -2.588209,-0.044893 c -0.03067,-0.012375 -0.08085,-0.012375 -0.111525,0 -0.03067,0.012375 -0.0056,0.022501 0.05576,0.022501 0.06134,0 0.08643,-0.010125 0.05576,-0.022501 z m 2.275941,2.811e-4 c -0.0302,-0.01222 -0.09042,-0.012964 -0.133829,-0.00165 -0.0434,0.011311 -0.01869,0.021308 0.05491,0.022217 0.07361,9.091e-4 0.109118,-0.00834 0.07892,-0.020565 z M 12.200743,3.0111524 C 12.248014,2.9806041 12.18908,2.967909 12,2.967909 c -0.18908,0 -0.248014,0.012695 -0.200743,0.043243 0.0368,0.023784 0.127137,0.043243 0.200743,0.043243 0.07361,0 0.163941,-0.01946 0.200743,-0.043243 z"
     id="path1170" />
  <path
     style="fill:#000000;fill-opacity:1;stroke:#000000;stroke-width:0.0446097"
     d="M 11.197026,22.96677 C 9.4182678,22.752188 8.4726772,22.491852 7.1821561,21.861415 3.8370352,20.227276 1.5850401,17.071112 1.0847976,13.315985 1.0008402,12.68575 1.0141026,11.131824 1.1087837,10.505576 1.3077954,9.1892565 1.66096,8.0887271 2.2470477,6.9585252 3.901982,3.7671761 6.9265432,1.6305324 10.527881,1.1086882 c 0.798045,-0.115639 2.254485,-0.1053848 3.078067,0.021671 1.193737,0.184161 2.182715,0.4944418 3.230996,1.0136888 1.759384,0.8714784 3.243361,2.1785816 4.343539,3.8258343 0.844007,1.2636995 1.479067,2.9555197 1.71094,4.5579987 0.115434,0.797774 0.105192,2.254713 -0.02164,3.078067 -0.842208,5.467419 -5.531789,9.450147 -11.048224,9.382944 -0.269888,-0.0033 -0.550929,-0.01324 -0.624535,-0.02212 z m 0.88189,-1.962574 c -0.0302,-0.01222 -0.09042,-0.01296 -0.133829,-0.0017 -0.0434,0.01131 -0.01869,0.02131 0.05491,0.02222 0.07361,9.1e-4 0.109118,-0.0083 0.07892,-0.02056 z m 3.98319,-0.976917 c 0.08165,-0.06542 0.08023,-0.06634 -0.02493,-0.01626 -0.136552,0.06503 -0.161859,0.08564 -0.105181,0.08564 0.02393,0 0.08249,-0.03122 0.130111,-0.06938 z M 16.6171,19.715181 c 0,-0.01227 -0.06022,0.0088 -0.133829,0.0469 -0.07361,0.03806 -0.133829,0.07924 -0.133829,0.09151 0,0.01227 0.06022,-0.0088 0.133829,-0.0469 0.07361,-0.03806 0.133829,-0.07924 0.133829,-0.09151 z m 0.505289,-0.328714 c 0.02878,-0.03484 -0.03298,-0.0071 -0.137259,0.06169 -0.104275,0.06877 -0.189591,0.133543 -0.189591,0.143937 0,0.03218 0.271503,-0.13863 0.32685,-0.205626 z m 0.303376,-0.215463 c 0.05549,-0.07075 0.05391,-0.07233 -0.01684,-0.01684 -0.07431,0.05828 -0.09794,0.09491 -0.06122,0.09491 0.0093,0 0.04439,-0.03513 0.07807,-0.07807 z M 6.2230483,18.877664 c 0,-0.008 -0.055204,-0.0632 -0.1226766,-0.122676 L 5.9776952,18.64684 6.0858428,18.769517 c 0.1010806,0.11466 0.1372055,0.143134 0.1372055,0.108147 z M 5.6431227,18.334572 C 5.5347645,18.224164 5.4360705,18.133829 5.4238028,18.133829 c -0.012268,0 0.066352,0.09033 0.1747102,0.200743 0.1083582,0.110409 0.2070522,0.200744 0.2193199,0.200744 0.012268,0 -0.066352,-0.09034 -0.1747102,-0.200744 z M 5.330855,17.985471 c 0,-0.008 -0.055204,-0.0632 -0.1226766,-0.122677 l -0.1226765,-0.108147 0.1081478,0.122676 c 0.1010805,0.11466 0.1372053,0.143135 0.1372053,0.108148 z m 13.477809,-0.108148 c 0.05549,-0.07075 0.05391,-0.07233 -0.01684,-0.01684 -0.07431,0.05828 -0.09794,0.09491 -0.06123,0.09491 0.0093,0 0.04439,-0.03513 0.07807,-0.07807 z M 14.81025,11.80213 17.352841,9.2565306 16.628074,8.5317627 15.903306,7.8069948 13.081655,10.628383 10.260004,13.449771 8.8437988,12.033566 7.4275932,10.61736 l -0.724949,0.726622 -0.724949,0.726623 2.1311116,2.121442 2.1311122,2.121442 1.013869,-0.982879 c 0.557629,-0.540584 2.158036,-2.1284 3.556462,-3.52848 z m 6.208142,0.164413 c -0.01237,-0.03067 -0.0225,-0.0056 -0.0225,0.05576 0,0.06134 0.01013,0.08643 0.0225,0.05576 0.01238,-0.03067 0.01238,-0.08086 0,-0.111524 z M 2.9974568,11.900477 c -0.011311,-0.0434 -0.021308,-0.01869 -0.022217,0.05491 -9.092e-4,0.07361 0.00834,0.109118 0.020564,0.07892 0.01222,-0.0302 0.012963,-0.09043 0.00165,-0.133829 z M 4.260223,7.472119 C 4.286485,7.423048 4.297935,7.3829 4.285667,7.3829 4.273399,7.3829 4.241875,7.423049 4.215613,7.472119 4.189351,7.52119 4.177901,7.561338 4.190169,7.561338 c 0.012268,0 0.043792,-0.040149 0.070054,-0.089219 z M 4.8458389,6.5910781 c 0.055489,-0.070754 0.053911,-0.072331 -0.016843,-0.016843 -0.042937,0.033674 -0.078067,0.068804 -0.078067,0.078067 0,0.036715 0.036633,0.013084 0.09491,-0.061224 z M 4.9962825,6.401487 c 0.044408,-0.049071 0.070705,-0.089219 0.058438,-0.089219 -0.012268,0 -0.058639,0.040149 -0.1030472,0.089219 -0.044408,0.049071 -0.070705,0.089219 -0.058438,0.089219 0.012268,0 0.058639,-0.040149 0.1030472,-0.089219 z M 5.2193309,6.133829 c 0.044408,-0.049071 0.070705,-0.089219 0.058438,-0.089219 -0.012268,0 -0.058639,0.040149 -0.1030472,0.089219 -0.044408,0.049071 -0.070705,0.089219 -0.058438,0.089219 0.012268,0 0.058639,-0.040149 0.1030472,-0.089219 z M 18.892193,6.207657 c 0,-0.00847 -0.04517,-0.053632 -0.100371,-0.1003717 l -0.100372,-0.084981 0.08498,0.1003718 c 0.07986,0.094324 0.115762,0.1206798 0.115762,0.084981 z M 18.535316,5.8070324 c 0,-0.00799 -0.0552,-0.063195 -0.122677,-0.1226766 L 18.289963,5.5762082 18.39811,5.6988848 c 0.101081,0.1146597 0.137206,0.1431341 0.137206,0.1081476 z M 12.100892,2.980502 c -0.04265,-0.011166 -0.122948,-0.011571 -0.178439,-9.002e-4 -0.05549,0.01067 -0.02059,0.019806 0.07755,0.020301 0.09814,4.951e-4 0.143543,-0.00824 0.100892,-0.019401 z"
     id="path1172" />
</svg>
