<?xml version="1.0" encoding="UTF-8" standalone="no"?>
<svg
   width="24"
   height="24"
   viewBox="0 0 24 24"
   fill="none"
   version="1.1"
   id="svg52"
   sodipodi:docname="trash.svg"
   xmlns:inkscape="http://www.inkscape.org/namespaces/inkscape"
   xmlns:sodipodi="http://sodipodi.sourceforge.net/DTD/sodipodi-0.dtd"
   xmlns="http://www.w3.org/2000/svg"
   xmlns:svg="http://www.w3.org/2000/svg">
  <defs
     id="defs56" />
  <sodipodi:namedview
     id="namedview54"
     pagecolor="#505050"
     bordercolor="#eeeeee"
     borderopacity="1"
     inkscape:showpageshadow="0"
     inkscape:pageopacity="0"
     inkscape:pagecheckerboard="0"
     inkscape:deskcolor="#505050"
     showgrid="false" />
  <path
     fill-rule="evenodd"
     clip-rule="evenodd"
     d="M 17,5 V 4 C 17,2.89543 16.1046,2 15,2 H 9 C 7.89543,2 7,2.89543 7,4 V 5 H 4 C 3.44772,5 3,5.44772 3,6 3,6.55228 3.44772,7 4,7 h 1 v 11 c 0,1.6569 1.34315,3 3,3 h 8 c 1.6569,0 3,-1.3431 3,-3 V 7 h 1 C 20.5523,7 21,6.55228 21,6 21,5.44772 20.5523,5 20,5 Z M 15,4 H 9 v 1 h 6 z m 2,3 H 7 v 11 c 0,0.5523 0.44772,1 1,1 h 8 c 0.5523,0 1,-0.4477 1,-1 z"
     fill="currentColor"
     id="path46" />
  <path
     d="m 9,9 h 2 v 8 H 9 Z"
     fill="currentColor"
     id="path48"
     style="fill:#000000;fill-opacity:0" />
  <path
     d="m 13,9 h 2 v 8 h -2 z"
     fill="currentColor"
     id="path50"
     style="fill:#000000;fill-opacity:0" />
  <path
     style="fill:#000000;fill-opacity:1;stroke:#000000;stroke-width:0.0429338;stroke-opacity:1"
     d="M 7.8354204,18.958635 C 7.5382989,18.897456 7.2611293,18.690808 7.1122926,18.419497 7.0472389,18.300912 7.0401722,17.807145 7.0297883,12.654741 L 7.0184318,7.019678 H 12 16.981568 l -0.01136,5.635063 c -0.01038,5.152404 -0.01745,5.646171 -0.08251,5.764756 -0.09872,0.179955 -0.282764,0.355877 -0.486429,0.464962 l -0.172298,0.09229 -4.121645,0.0064 c -2.2669057,0.0035 -4.189267,-0.0075 -4.2719146,-0.02453 z m 3.1771016,-5.94969 V 8.9946333 H 10.003578 8.9946333 v 4.0143117 4.014311 h 1.0089447 1.008944 z m 3.992845,0 V 8.9946333 h -1.008945 -1.008944 v 4.0143117 4.014311 h 1.008944 1.008945 z"
     id="path1116" />
  <path
     style="fill:#000000;fill-opacity:0;stroke:#000000;stroke-width:0.0078125;stroke-opacity:1"
     d="m 11.613281,17.851714 v -3.144683 h 0.695313 0.695312 v 1.148438 1.148437 h 0.992188 0.992187 v -1.148437 -1.148438 h 0.997386 0.997386 l -0.0053,1.212891 c -0.0077,1.757947 -0.01911,2.260227 -0.05605,2.458136 -0.0026,0.01412 10e-4,0.01037 0.01186,-0.01217 0.02194,-0.0456 0.05258,-0.166062 0.06221,-0.244585 0.0054,-0.04391 0.0081,-0.629961 0.0081,-1.740235 v -1.674033 h 0.996306 0.996305 l -0.0026,1.767578 c -0.0029,1.93698 3.51e-4,1.800656 -0.04881,2.072266 -0.165302,0.913357 -0.768789,1.713801 -1.609754,2.13512 -0.241705,0.121092 -0.523671,0.215182 -0.788473,0.263107 -0.275088,0.04978 -0.07599,0.04608 -2.619141,0.04881 l -2.314453,0.0025 z m 3.63539,1.146333 c -0.460496,-0.0011 -1.216356,-0.0011 -1.679687,0 -0.463332,0.0011 -0.08656,0.002 0.837266,0.002 0.923828,0 1.302918,-9.11e-4 0.842421,-0.002 z m 1.176243,-0.08875 c 0.189108,-0.0877 0.358468,-0.248118 0.460975,-0.43664 0.01752,-0.03223 0.03185,-0.06211 0.03183,-0.06641 -1.5e-5,-0.0043 -0.01021,0.01065 -0.02266,0.03322 -0.04231,0.07674 -0.09733,0.146299 -0.183834,0.232403 -0.09555,0.09511 -0.172426,0.152929 -0.303523,0.228284 -0.09424,0.05417 -0.08755,0.05772 0.01721,0.0091 z"
     id="path1197" />
  <path
     style="fill:#000000;fill-opacity:0;stroke:#000000;stroke-width:0.0078125;stroke-opacity:1"
     d="m 11.613281,17.851726 v -3.144695 h 0.695313 0.695312 v 1.148438 1.148437 h 0.992188 0.992187 v -1.148437 -1.148438 h 0.996094 0.996094 l -1.46e-4,0.708985 c -1.8e-4,0.870815 -0.0124,2.172984 -0.02342,2.49414 -0.0072,0.210375 -0.01514,0.337187 -0.0276,0.441406 -0.0036,0.03031 -0.0032,0.02996 0.01252,-0.01172 0.0089,-0.02363 0.02533,-0.07988 0.03642,-0.125 0.02511,-0.102168 0.02329,0.0408 0.02461,-1.935547 l 10e-4,-1.572266 h 0.996305 0.996305 l -0.0028,1.771485 c -0.0029,1.875351 -0.0015,1.806223 -0.04072,2.029296 -0.07381,0.420232 -0.225979,0.80202 -0.459294,1.152344 -0.37217,0.558816 -0.921944,0.976766 -1.564043,1.189019 -0.16838,0.05566 -0.397667,0.105799 -0.605468,0.132402 -0.05637,0.0072 -0.631594,0.01014 -2.392578,0.01217 l -2.31836,0.0027 z m 1.59961,1.14633 c -0.08916,-0.0013 -0.235059,-0.0013 -0.324219,0 -0.08916,0.0013 -0.01621,0.0023 0.162109,0.0023 0.178321,0 0.25127,-0.001 0.16211,-0.0023 z m 2.62166,-5e-6 c -0.138262,-0.0012 -0.366777,-0.0012 -0.507812,-1e-6 -0.141035,0.0012 -0.02791,0.0022 0.251386,0.0022 0.279297,0 0.394689,-9.77e-4 0.256426,-0.0022 z m 0.509144,-0.05655 c 0.0027,-0.0044 -4e-4,-0.0057 -0.0074,-0.0031 -0.01353,0.0052 -0.01601,0.01079 -0.0048,0.01079 0.004,0 0.0095,-0.0035 0.01213,-0.0077 z m 0.103713,-0.04624 c 0.04182,-0.02108 0.102397,-0.0569 0.134623,-0.07959 0.103082,-0.07258 0.221921,-0.202429 0.281753,-0.307856 0.02264,-0.0399 0.01417,-0.03109 -0.04889,0.05078 -0.09557,0.124096 -0.235924,0.24493 -0.380799,0.327836 -0.06397,0.0366 -0.07891,0.04716 -0.06677,0.04716 0.0022,0 0.03826,-0.01725 0.08008,-0.03834 z"
     id="path1199" />
  <path
     style="fill:#000000;fill-opacity:0;stroke:#000000;stroke-width:0.0078125;stroke-opacity:1"
     d="m 11.613281,17.85175 v -3.144719 h 0.695313 0.695312 v 1.148438 1.148437 h 0.992188 0.992187 v -1.148437 -1.148438 l 0.998047,-2e-6 0.998047,-3e-6 -0.0051,1.236331 c -0.0062,1.48191 -0.01694,2.07782 -0.04259,2.353518 -0.0028,0.03008 -0.0031,0.05285 -6.5e-4,0.05061 0.0078,-0.0072 0.04415,-0.140342 0.05245,-0.192304 0.01123,-0.0703 0.01379,-0.425829 0.01468,-2.03995 l 7.76e-4,-1.408203 H 18 18.996094 l -3.2e-5,1.705078 c -2.3e-5,1.066822 -0.003,1.746021 -0.0079,1.814453 -0.04312,0.599326 -0.269263,1.171362 -0.653238,1.652344 -0.105328,0.131939 -0.319825,0.347184 -0.448206,0.449768 -0.411881,0.32912 -0.849057,0.528528 -1.367505,0.623755 -0.219207,0.04026 -0.10445,0.03843 -2.57976,0.04132 l -2.326173,0.0027 z m 1.209191,1.146477 c -0.016,-0.0017 -0.04412,-0.0017 -0.0625,-5.4e-5 -0.01837,0.0016 -0.0053,0.003 0.02909,0.0031 0.03438,3.1e-5 0.04941,-0.0013 0.03341,-0.003 z m 0.523438,0 c -0.016,-0.0017 -0.04412,-0.0017 -0.0625,-5.4e-5 -0.01838,0.0016 -0.0053,0.003 0.02909,0.0031 0.03438,3.1e-5 0.04941,-0.0013 0.03341,-0.003 z m 1.870887,-1.05e-4 c -0.02686,-0.0015 -0.0708,-0.0015 -0.09766,0 -0.02686,0.0015 -0.0049,0.0028 0.04883,0.0028 0.05371,0 0.07568,-0.0012 0.04883,-0.0028 z m 0.796875,-3.9e-5 c -0.03975,-0.0014 -0.104785,-0.0014 -0.144531,0 -0.03975,0.0014 -0.0072,0.0026 0.07226,0.0026 0.07949,0 0.112012,-0.0012 0.07227,-0.0026 z M 16.484957,18.8739 c 0.09013,-0.05046 0.153345,-0.100027 0.234158,-0.183613 0.06104,-0.06313 0.136354,-0.159652 0.136354,-0.174745 0,-0.0027 -0.02049,0.02087 -0.04552,0.05231 -0.09428,0.118371 -0.24978,0.249812 -0.386119,0.326383 -0.02471,0.01388 -0.04492,0.02656 -0.04492,0.0282 0,0.0062 0.04533,-0.01453 0.106051,-0.04852 z"
     id="path1201" />
  <path
     style="fill:#000000;fill-opacity:0;stroke:#000000;stroke-width:0.0078125;stroke-opacity:1"
     d="m 11.613281,17.851562 v -3.144531 h 0.695287 0.695286 l 0.002,1.146485 0.002,1.146484 h 0.988282 0.988281 l 0.002,-1.146484 0.002,-1.146485 h 1.000328 1.000328 l -0.0042,0.556641 c -0.0023,0.306152 -0.0061,0.899414 -0.0084,1.318359 -0.0054,0.996999 -0.01892,1.582676 -0.03974,1.722656 -0.0076,0.05093 0.0087,0.02242 0.02725,-0.04769 0.0092,-0.03482 0.01998,-0.09107 0.02395,-0.125 0.0082,-0.07055 0.01574,-1.270883 0.01594,-2.551919 l 1.32e-4,-0.873047 h 0.996335 0.996334 l -0.0027,1.783203 c -0.0024,1.580223 -0.0041,1.79343 -0.01514,1.873047 -0.05621,0.405084 -0.173644,0.763261 -0.35987,1.097656 -0.06284,0.112845 -0.195033,0.308699 -0.280893,0.416175 -0.09482,0.118686 -0.321283,0.347801 -0.435654,0.440747 -0.292589,0.237777 -0.623368,0.419479 -0.970772,0.53326 -0.213612,0.06996 -0.485881,0.123467 -0.697064,0.136983 -0.0803,0.0051 -0.92723,0.008 -2.373047,0.008 h -2.24818 z m 1.661947,1.147624 c -0.0026,-0.0026 -0.0093,-0.0029 -0.01497,-6.16e-4 -0.0062,0.0025 -0.0044,0.0043 0.0047,0.0047 0.0082,3.39e-4 0.01285,-0.0015 0.01025,-0.0041 z m 0.09375,0 c -0.0026,-0.0026 -0.0093,-0.0029 -0.01497,-6.16e-4 -0.0062,0.0025 -0.0044,0.0043 0.0047,0.0047 0.0082,3.39e-4 0.01285,-0.0015 0.01025,-0.0041 z m 1.730631,-4.54e-4 c -0.0054,-0.0022 -0.01416,-0.0022 -0.01953,0 -0.0054,0.0022 -9.76e-4,0.0039 0.0098,0.0039 0.01074,0 0.01514,-0.0018 0.0098,-0.0039 z m 0.15625,0 c -0.0054,-0.0022 -0.01416,-0.0022 -0.01953,0 -0.0054,0.0022 -9.76e-4,0.0039 0.0098,0.0039 0.01074,0 0.01514,-0.0018 0.0098,-0.0039 z m 0.582032,-2.12e-4 c -0.0075,-0.002 -0.01983,-0.002 -0.02734,0 -0.0075,0.002 -0.0014,0.0036 0.01367,0.0036 0.01504,0 0.02119,-0.0016 0.01367,-0.0036 z m 0.234466,1.6e-5 c -0.0075,-0.002 -0.02153,-0.002 -0.03125,-1.58e-4 -0.0097,0.0019 -0.0036,0.0035 0.01358,0.0036 0.01719,8.6e-5 0.02514,-0.0014 0.01767,-0.0034 z M 16.558594,18.8258 c 0.07071,-0.04638 0.203796,-0.174322 0.249771,-0.24012 0.01871,-0.02678 -0.0017,-0.009 -0.06599,0.05755 -0.09337,0.09662 -0.203884,0.186838 -0.287479,0.234666 -0.02461,0.01408 -0.04474,0.02716 -0.04474,0.02906 0,0.007 0.08401,-0.0389 0.148438,-0.08115 z"
     id="path1203" />
  <path
     style="fill:#000000;fill-opacity:0;stroke:#000000;stroke-width:0.0078125;stroke-opacity:1"
     d="m 11.613281,17.851562 v -3.144531 h 0.694041 0.69404 l 0.0052,0.333985 c 0.0028,0.183691 0.0052,0.69873 0.0052,1.144531 l 1e-5,0.810547 h 0.984375 0.984375 v -0.48699 c 0,-0.267844 0.0023,-0.782883 0.0052,-1.144531 l 0.0052,-0.657542 h 0.998713 0.998713 l -9.7e-5,0.216797 c -5.4e-5,0.119238 -0.0035,0.723047 -0.0078,1.341797 -0.0078,1.141395 -0.01653,1.664296 -0.03197,1.90876 -0.0047,0.07443 -0.0069,0.136953 -0.0049,0.138946 0.0058,0.0058 0.03808,-0.129502 0.04213,-0.176612 0.002,-0.02363 0.0069,-0.05304 0.01087,-0.06535 0.0039,-0.01231 0.0052,-0.0255 0.0029,-0.02931 -0.0056,-0.0091 -0.0048,-1.170176 0.0017,-2.372135 l 0.0052,-0.962891 h 0.994839 0.994839 l -3.9e-5,1.705078 c -2.4e-5,1.098523 -0.0029,1.75088 -0.0082,1.833831 -0.02341,0.369059 -0.139407,0.774792 -0.322782,1.12906 -0.154746,0.298959 -0.33427,0.5385 -0.588755,0.785583 -0.226874,0.220275 -0.460621,0.385013 -0.756003,0.532811 -0.32437,0.162302 -0.725897,0.272351 -1.074372,0.294459 -0.08456,0.0054 -0.901709,0.0082 -2.380706,0.0082 l -2.251951,3.7e-5 z m 4.884422,1.010884 c 0.07879,-0.04624 0.137554,-0.09276 0.208329,-0.164935 0.03911,-0.03988 0.0769,-0.0813 0.08399,-0.09204 0.0071,-0.01074 -0.01308,0.0069 -0.04482,0.03928 -0.07967,0.0812 -0.147021,0.138335 -0.229088,0.194329 -0.07595,0.05182 -0.08374,0.06171 -0.01841,0.02337 z m 0.327512,-0.301899 c 0.0097,-0.01239 0.0094,-0.01267 -0.0029,-0.0029 -0.0075,0.0059 -0.01367,0.01205 -0.01367,0.01367 0,0.0064 0.0064,0.0023 0.01662,-0.01072 z"
     id="path1205" />
  <path
     style="fill:#000000;fill-opacity:0;stroke:#000000;stroke-width:0.0078125;stroke-opacity:1"
     d="m 11.613281,17.854068 v -3.147037 h 0.694336 0.694336 l 0.0049,0.02441 c 0.0027,0.01343 0.0049,0.528467 0.0049,1.144532 v 1.120117 h 0.984375 0.984375 l 2.3e-5,-0.998047 c 1.6e-5,-0.548926 0.0023,-1.063965 0.0051,-1.144531 l 0.0051,-0.146485 h 0.999911 0.99991 l -0.0054,1.021485 c -0.008,1.522886 -0.02117,2.341867 -0.04068,2.529296 -0.0027,0.02578 -0.0024,0.04454 5.3e-4,0.04169 0.0099,-0.0095 0.03473,-0.119193 0.04261,-0.188545 0.0049,-0.04309 0.0079,-0.607794 0.0081,-1.519454 1.58e-4,-0.797985 0.0026,-1.548441 0.0055,-1.667679 l 0.0052,-0.216797 h 0.996814 l 0.996814,-10e-7 -0.002,1.697266 c -0.0011,0.984669 -0.0052,1.754956 -0.0096,1.834672 -0.0326,0.583855 -0.294681,1.223158 -0.694406,1.693903 -0.09525,0.112167 -0.310095,0.322268 -0.419006,0.409745 -0.107638,0.08645 -0.297373,0.213211 -0.428095,0.285997 -0.319088,0.177671 -0.677157,0.295341 -1.060186,0.348404 -0.121581,0.01684 -0.335526,0.01852 -2.75586,0.02155 l -2.017578,0.0025 z m 4.954929,0.960788 c 0.02463,-0.01654 0.0756,-0.06017 0.113282,-0.09696 l 0.06851,-0.06688 -0.06641,0.05746 c -0.03652,0.0316 -0.08926,0.07466 -0.117188,0.09567 -0.08385,0.0631 -0.08307,0.06772 0.0018,0.0107 z"
     id="path1207" />
  <path
     style="fill:#000000;fill-opacity:0;stroke:#000000;stroke-width:0.0078125;stroke-opacity:1"
     d="m 11.613281,17.85644 v -3.149409 h 0.699219 0.699219 v 1.144531 1.144532 h 0.984375 0.984375 V 15.86392 c 0,-0.622695 0.0021,-1.137734 0.0047,-1.144531 0.0043,-0.01118 0.100117,-0.01236 1.005169,-0.01236 h 1.000426 l -0.0054,1.091797 c -0.0074,1.48235 -0.02228,2.38633 -0.0408,2.470703 -0.0029,0.01309 -0.0017,0.01695 0.0036,0.01172 0.0043,-0.0043 0.01559,-0.04297 0.02502,-0.08594 l 0.01716,-0.07813 0.003,-1.679687 c 0.0017,-0.923828 0.0049,-1.691113 0.0071,-1.705078 l 0.0041,-0.02539 h 1.000679 1.000679 l -0.0053,1.72461 c -0.0029,0.948535 -0.0086,1.774056 -0.01263,1.834491 -0.03662,0.551583 -0.273604,1.141878 -0.647478,1.612774 -0.07942,0.100031 -0.311917,0.33591 -0.422551,0.4287 -0.465151,0.390125 -1.091832,0.646934 -1.660157,0.680319 -0.06875,0.004 -1.141894,0.0097 -2.384765,0.01263 l -2.259766,0.0053 z m 5.021449,0.902446 c 0.0075,-0.0087 -0.0083,0.0012 -0.03512,0.02198 -0.02686,0.02081 -0.04883,0.0393 -0.04883,0.04108 0,0.0057 0.06979,-0.04668 0.08395,-0.06306 z"
     id="path1209" />
  <path
     style="fill:#000000;fill-opacity:0;stroke:#000000;stroke-width:0.0078125;stroke-opacity:1"
     d="m 11.613281,17.856753 v -3.149722 h 0.699219 0.699219 v 1.144531 1.144532 h 0.984349 0.984349 l 0.002,-1.142578 0.002,-1.142579 2.01106,-0.002 2.011061,-0.002 -0.0052,1.736343 c -0.0031,1.051857 -0.0083,1.777142 -0.01312,1.839838 -0.04396,0.572493 -0.307828,1.201485 -0.692026,1.649626 -0.137116,0.159936 -0.340803,0.353389 -0.492628,0.467877 -0.07557,0.05698 -0.2395,0.164328 -0.326997,0.21412 -0.362594,0.206342 -0.814277,0.346651 -1.203125,0.373733 -0.06439,0.0045 -1.045325,0.0097 -2.384765,0.01278 l -2.275391,0.0052 z m 5.37529,-0.485659 c 0.0031,-0.431836 0.0052,-1.140235 0.0047,-1.574219 -4.82e-4,-0.433984 -0.0016,-0.651953 -0.0025,-0.484375 -0.0078,1.42927 -0.02225,2.548211 -0.03704,2.875 l -0.0039,0.08594 0.01662,-0.05859 c 0.01626,-0.05735 0.01673,-0.07524 0.02217,-0.84375 z"
     id="path1211" />
  <path
     style="fill:#000000;fill-opacity:0;stroke:#000000;stroke-width:0.0078125;stroke-opacity:1"
     d="m 11.613281,17.855469 v -3.148438 h 0.699193 0.699193 l 0.002,1.142578 0.002,1.142578 h 0.980469 0.980468 l 0.002,-1.142578 0.002,-1.142578 h 2.011693 2.011692 l -6.78e-4,1.244141 c -3.73e-4,0.684277 -0.0035,1.499023 -0.0069,1.810547 -0.0058,0.521773 -0.0076,0.575025 -0.02306,0.675781 -0.08086,0.526407 -0.310816,1.050287 -0.635576,1.44796 -0.481888,0.590079 -1.147903,0.971351 -1.900153,1.087774 -0.103233,0.01598 -0.147983,0.01727 -0.796875,0.02308 -0.378125,0.0034 -1.438965,0.0065 -2.357422,0.0069 l -1.669922,7.18e-4 z m 5.362232,0.308593 c 0.0109,-0.05498 0.01226,-0.16594 0.01132,-0.921875 l -0.0011,-0.859375 -0.0058,0.566407 c -0.006,0.587328 -0.02053,1.239448 -0.02828,1.273437 -0.003,0.01321 -0.0019,0.017 0.0035,0.01172 0.0044,-0.0043 0.01354,-0.03594 0.02035,-0.07031 z m 0.01859,-3.091425 c -0.0015,-0.03565 -0.0026,-0.0086 -0.0027,0.06017 -8e-6,0.06875 0.0012,0.09792 0.0026,0.06483 0.0015,-0.0331 0.0015,-0.08935 1.5e-5,-0.125 z"
     id="path1213" />
  <path
     style="fill:#000000;fill-opacity:0;stroke:#000000;stroke-width:0.0078125;stroke-opacity:1"
     d="m 11.613281,17.855469 v -3.148438 h 0.699219 0.699219 v 0.295581 c 0,0.16257 0.0023,0.675851 0.0052,1.140625 l 0.0052,0.845044 h 0.973988 0.973988 l 0.0052,-0.575509 c 0.0029,-0.31653 0.0052,-0.829811 0.0052,-1.140625 v -0.565116 h 2.012766 2.012766 l -0.0045,1.759766 c -0.003,1.155586 -0.0074,1.790612 -0.0129,1.849609 -0.03506,0.375982 -0.175705,0.811984 -0.376403,1.166845 -0.342538,0.605653 -0.906289,1.08621 -1.562895,1.332254 -0.191591,0.07179 -0.44917,0.13722 -0.650835,0.165318 -0.105257,0.01467 -1.037655,0.02173 -2.958984,0.02242 l -1.826172,6.59e-4 z m 5.37222,-0.265625 c 0.0024,-0.298633 0.0026,-0.541211 3.31e-4,-0.539063 -0.0022,0.0021 -0.0079,0.209571 -0.0126,0.460938 -0.0047,0.251367 -0.01016,0.516797 -0.01211,0.589843 -0.0035,0.131983 -0.0035,0.132496 0.0082,0.08203 0.0096,-0.04158 0.01257,-0.149175 0.01614,-0.59375 z m 0.0082,-2.365086 c -0.002,-0.0076 -0.0037,-0.0033 -0.0039,0.0096 -1.59e-4,0.01289 0.0015,0.01911 0.0036,0.01382 0.0021,-0.0053 0.0023,-0.01584 2.9e-4,-0.02344 z m 0,-0.203125 c -0.002,-0.0076 -0.0037,-0.0033 -0.0039,0.0096 -1.59e-4,0.01289 0.0015,0.01911 0.0036,0.01382 0.0021,-0.0053 0.0023,-0.01584 2.9e-4,-0.02344 z"
     id="path1215" />
  <path
     style="fill:#000000;fill-opacity:0;stroke:#000000;stroke-width:0.0078125;stroke-opacity:1"
     d="m 11.613281,17.857822 v -3.150791 h 0.697938 0.697938 l 0.0052,0.47461 c 0.0028,0.261035 0.0052,0.774316 0.0052,1.140625 l 7e-6,0.666015 h 0.976563 0.976562 v -0.342456 c 0,-0.188351 0.0023,-0.701633 0.0052,-1.140625 l 0.0052,-0.798169 h 2.013466 2.013466 l -0.003,0.626953 c -0.0017,0.344825 -0.0047,1.140235 -0.0068,1.767578 -0.0022,0.664649 -0.007,1.174574 -0.01151,1.22198 -0.04071,0.426202 -0.210535,0.908361 -0.45565,1.293645 -0.123292,0.193799 -0.258052,0.357614 -0.440239,0.535157 -0.321915,0.313709 -0.699294,0.546851 -1.116224,0.689593 -0.223494,0.07652 -0.464908,0.13037 -0.65826,0.146841 -0.06624,0.0056 -0.687736,0.0096 -1.857365,0.01182 -0.966796,0.0018 -2.003027,0.0044 -2.302734,0.0057 l -0.544922,0.0023 z m 5.359495,0.280389 c 6.2e-5,-0.02445 0.0027,-0.04043 0.0059,-0.03551 0.0032,0.0049 0.0064,-0.179127 0.0072,-0.408996 7.94e-4,-0.229868 -2.19e-4,-0.41628 -0.0023,-0.414248 -0.002,0.002 -0.0069,0.168502 -0.01091,0.369933 -0.004,0.201431 -0.0091,0.406015 -0.01148,0.45463 -0.0028,0.05846 -0.0016,0.08674 0.0036,0.08352 0.0043,-0.0027 0.0079,-0.02488 0.008,-0.04933 z"
     id="path1217" />
  <path
     style="fill:#000000;fill-opacity:0;stroke:#000000;stroke-width:0.0078125;stroke-opacity:1"
     d="m 11.613281,17.859213 v -3.152182 h 0.697965 0.697965 l 0.0051,0.205078 c 0.0028,0.112793 0.0052,0.626075 0.0052,1.140625 l 1.6e-5,0.935547 h 0.976563 0.976562 l 7e-6,-0.654297 c 4e-6,-0.359863 0.0023,-0.873144 0.0052,-1.140625 l 0.0052,-0.486328 h 2.014041 2.014041 l -0.0042,1.435547 c -0.0052,1.766139 -0.01111,2.176862 -0.0334,2.31555 -0.08218,0.511382 -0.306668,1.021667 -0.623319,1.416872 -0.08413,0.104999 -0.282137,0.308932 -0.393148,0.404913 -0.294286,0.254441 -0.654376,0.457466 -1.029074,0.580208 -0.191453,0.06272 -0.423644,0.112797 -0.59202,0.127694 -0.09786,0.0087 -0.85784,0.01319 -3.326171,0.01982 l -1.396485,0.0038 z m 5.368134,0.242349 c 0.0062,0.01344 0.0066,0.01289 0.0032,-0.0039 -0.0022,-0.01074 -0.004,-0.147558 -0.0041,-0.304036 -6.2e-5,-0.156478 -0.0014,-0.283041 -0.0031,-0.28125 -0.0016,0.0018 -0.0047,0.152669 -0.0067,0.335286 -0.0021,0.182617 -0.0022,0.310938 -1.64e-4,0.285156 0.0028,-0.03641 0.0052,-0.04339 0.01081,-0.03125 z"
     id="path1219" />
  <path
     style="fill:#000000;fill-opacity:0;stroke:#000000;stroke-width:0.0078125;stroke-opacity:1"
     d="M 11.613281,17.860095 V 14.707031 H 12.3125 c 0.38457,0 0.699931,8.79e-4 0.700802,0.002 8.71e-4,0.0011 0.0035,0.513477 0.0059,1.138672 l 0.0043,1.136719 h 0.972657 0.972656 l 0.0047,-1.070313 c 0.0026,-0.588671 0.0052,-1.101074 0.0059,-1.138671 l 0.0011,-0.06836 h 2.015625 2.015625 l -3.58e-4,0.525391 c -7.82e-4,1.14978 -0.01471,3.026989 -0.02311,3.115234 -0.03053,0.320599 -0.159204,0.73134 -0.332148,1.060258 -0.155976,0.296646 -0.330858,0.524534 -0.601602,0.783946 -0.430028,0.41203 -0.992246,0.685771 -1.613091,0.785405 -0.117894,0.01892 -0.664479,0.02481 -2.841797,0.03061 l -1.986328,0.0053 z m 5.364935,0.05006 c -4.12e-4,-0.162655 -6.01e-4,-0.164632 -0.006,-0.0625 -0.0076,0.144998 -0.0071,0.350791 6.94e-4,0.28125 0.0031,-0.02793 0.0055,-0.126367 0.0053,-0.21875 z"
     id="path1221" />
  <path
     style="fill:#000000;fill-opacity:0;stroke:#000000;stroke-width:0.0078125;stroke-opacity:1"
     d="m 11.613281,17.859375 v -3.152344 h 0.703125 0.703125 l 1.6e-5,0.884766 c 7e-6,0.486621 0.0023,0.998144 0.0052,1.136719 l 0.0052,0.251953 h 0.966237 0.966236 l 0.0051,-0.19336 c 0.0028,-0.106347 0.0051,-0.548751 0.0052,-0.983118 8e-6,-0.434368 0.0023,-0.85888 0.0052,-0.94336 l 0.0051,-0.1536 h 2.014387 2.014387 l -2.96e-4,0.732422 c -4.75e-4,1.176001 -0.01341,2.807129 -0.0231,2.912109 -0.02789,0.302278 -0.144247,0.683661 -0.308744,1.011932 -0.302981,0.60463 -0.828348,1.104674 -1.452749,1.382725 -0.278236,0.123901 -0.620205,0.218424 -0.87527,0.241932 -0.104939,0.0097 -2.204294,0.02255 -3.779297,0.02318 l -0.958984,3.86e-4 z m 5.356977,0.287258 c -0.002,-0.0076 -0.0037,-0.0033 -0.0039,0.0096 -1.6e-4,0.01289 0.0015,0.01911 0.0036,0.01382 0.0021,-0.0053 0.0023,-0.01584 2.9e-4,-0.02344 z m 0.008,-0.210979 c -0.0018,-0.01187 -0.0033,-0.004 -0.0034,0.01747 -6.3e-5,0.02148 0.0014,0.0312 0.0033,0.02159 0.0019,-0.0096 0.0019,-0.02719 1.06e-4,-0.03906 z m -4.32e-4,-0.183701 c -0.0022,-0.0054 -0.0039,-9.76e-4 -0.0039,0.0098 0,0.01074 0.0018,0.01514 0.0039,0.0098 0.0022,-0.0054 0.0022,-0.01416 0,-0.01953 z"
     id="path1223" />
  <path
     style="fill:#000000;fill-opacity:0;stroke:#000000;stroke-width:0.0078125;stroke-opacity:1"
     d="m 11.613281,17.860668 v -3.153637 h 0.703125 0.703125 l 7e-6,0.626953 c 3e-6,0.344825 0.0023,0.856348 0.0052,1.136719 l 0.0052,0.509766 h 0.966192 0.966191 l 0.0052,-0.392578 c 0.0028,-0.215918 0.0052,-0.698438 0.0052,-1.072266 3.1e-5,-0.373828 0.0023,-0.708691 0.0051,-0.744141 l 0.005,-0.06445 h 2.014467 2.014467 l -2.44e-4,0.884766 c -3.24e-4,1.177148 -0.01274,2.668418 -0.02307,2.771484 -0.04928,0.491459 -0.295912,1.085616 -0.619407,1.492188 -0.476671,0.599084 -1.138987,0.990862 -1.88925,1.117545 -0.150288,0.02538 -0.459299,0.02934 -2.774667,0.03562 l -2.091797,0.0057 z"
     id="path1225" />
  <path
     style="fill:#000000;fill-opacity:0;stroke:#000000;stroke-width:0.0078125;stroke-opacity:1"
     d="m 11.613281,17.863021 v -3.15599 h 0.701974 0.701974 l 0.0058,1.13081 c 0.0032,0.621946 0.0074,1.13347 0.0094,1.136719 0.0051,0.0082 1.922712,0.0075 1.927777,-7.17e-4 0.0023,-0.0036 0.0061,-0.496711 0.0086,-1.095703 0.0025,-0.598993 0.0064,-1.107535 0.0086,-1.130093 l 0.0041,-0.04102 h 2.016337 2.016338 l -0.0055,1.615235 c -0.006,1.764876 -0.01012,2.01345 -0.03576,2.166015 -0.0779,0.463569 -0.288014,0.952215 -0.569032,1.32333 -0.470242,0.621003 -1.161567,1.036425 -1.939128,1.165235 -0.129961,0.02153 -0.52753,0.02626 -2.582032,0.0307 -1.095703,0.0024 -2.054589,0.0059 -2.130859,0.0079 l -0.138672,0.0036 z"
     id="path1227" />
  <path
     style="fill:#000000;fill-opacity:0;stroke:#000000;stroke-width:0.0078125;stroke-opacity:1"
     d="m 11.613281,17.863522 v -3.156491 h 0.701839 0.701838 l 0.0052,0.650391 c 0.0029,0.357715 0.0052,0.829687 0.0052,1.048828 2.4e-5,0.219141 0.0023,0.43791 0.0051,0.486155 l 0.0051,0.08772 0.959042,-5.5e-5 0.959042,-5.5e-5 0.0044,-0.07203 c 0.0024,-0.03963 0.0065,-0.544892 0.009,-1.122822 0.0025,-0.577929 0.0063,-1.056933 0.0085,-1.064453 0.0038,-0.01298 0.106825,-0.01367 2.022767,-0.01367 h 2.018796 l -0.0037,0.275391 c -0.002,0.151465 -0.0056,0.888867 -0.0079,1.638672 -0.0046,1.475029 -0.0091,1.722783 -0.03408,1.871093 -0.03584,0.213059 -0.11242,0.469363 -0.204944,0.685893 -0.155486,0.363875 -0.338735,0.638845 -0.612195,0.918612 -0.244673,0.250316 -0.489513,0.431937 -0.785213,0.582465 -0.278233,0.141637 -0.578725,0.242112 -0.878907,0.293878 -0.146253,0.02522 -0.423332,0.02971 -2.125,0.03443 -0.850781,0.0024 -1.818457,0.0061 -2.15039,0.0084 l -0.603516,0.0041 z"
     id="path1229" />
  <path
     style="fill:#000000;fill-opacity:0;stroke:#000000;stroke-width:0.0078125;stroke-opacity:1"
     d="m 11.613281,17.863281 v -3.15625 h 0.703125 0.703125 l 5.89e-4,0.134766 c 0.005,1.135642 0.01318,2.121539 0.01776,2.128952 0.0045,0.0072 0.226427,0.0092 0.961609,0.0088 l 0.955818,-5.86e-4 0.0046,-0.196504 c 0.0025,-0.108077 0.0067,-0.616489 0.0092,-1.129804 0.0025,-0.513316 0.0063,-0.93607 0.0084,-0.939453 0.0021,-0.0034 0.912623,-0.0062 2.023405,-0.0062 h 2.019603 l -0.0044,0.736328 c -0.0024,0.404981 -0.0064,1.147657 -0.0088,1.650391 -0.0063,1.29784 -0.0084,1.33971 -0.08179,1.625 -0.109163,0.424336 -0.307702,0.829899 -0.561119,1.146217 -0.428169,0.534446 -1.003044,0.903485 -1.657389,1.063957 -0.203784,0.04998 -0.278743,0.05942 -0.535156,0.06743 -0.172222,0.0054 -3.404284,0.02209 -4.466797,0.02309 l -0.0918,8.7e-5 z"
     id="path1231" />
  <path
     style="fill:#000000;fill-opacity:0;stroke:#000000;stroke-width:0.0078125;stroke-opacity:1"
     d="m 11.613281,17.863281 v -3.15625 h 0.703125 c 0.386719,0 0.703267,8.79e-4 0.70344,0.002 1.74e-4,0.0011 0.0036,0.509613 0.0077,1.130087 0.0041,0.620473 0.0094,1.130178 0.01192,1.132677 0.0068,0.0068 1.910664,0.0058 1.914858,-0.001 0.002,-0.0032 0.007,-0.509457 0.01115,-1.125 0.0042,-0.615543 0.0091,-1.123563 0.01103,-1.128934 0.0028,-0.0078 0.4145,-0.0098 2.023257,-0.0098 h 2.019776 l -1.12e-4,0.271485 c -3.23e-4,0.779553 -0.01671,3.078383 -0.02312,3.24414 -0.0083,0.215142 -0.02186,0.310496 -0.07097,0.5 -0.153193,0.59113 -0.458469,1.104721 -0.888988,1.495617 -0.387284,0.351641 -0.819793,0.583465 -1.325401,0.710412 -0.193484,0.04858 -0.276386,0.05945 -0.515625,0.06763 -0.194608,0.0067 -3.142237,0.02297 -4.18164,0.02314 l -0.400391,6.8e-5 z"
     id="path1233" />
  <path
     style="fill:#000000;fill-opacity:0;stroke:#000000;stroke-width:0.03125;stroke-opacity:1"
     d="M 9.578125,20.984101 C 7.3879519,20.963545 7.4621081,20.968832 6.9708012,20.798188 6.1771694,20.522538 5.4628143,19.792122 5.1821779,18.969349 5.0097358,18.463782 5.015625,18.688729 5.015625,12.607585 V 6.9889818 L 4.3828125,6.9788659 C 3.6536327,6.9672095 3.5670903,6.943735 3.3116776,6.6883224 2.8368449,6.2134897 2.9620027,5.4320494 3.5620505,5.1250833 L 3.7454731,5.03125 5.380549,5.0223761 7.015625,5.0135023 V 4.6083136 4.203125 H 8 8.984375 v 0.40625 0.40625 H 12 15.015625 V 4.609375 4.203125 H 16 16.984375 v 0.40625 0.40625 h 1.572453 c 1.32642,0 1.597866,0.00755 1.73487,0.048233 0.228414,0.067831 0.467597,0.2721675 0.583219,0.4982469 0.08157,0.1594924 0.09377,0.2164452 0.09337,0.435686 -5.72e-4,0.3088268 -0.07034,0.4809116 -0.279961,0.6905319 -0.255777,0.2557773 -0.341344,0.2788809 -1.07629,0.2906028 l -0.637967,0.010175 0.02014,5.6222294 c 0.02183,6.094323 0.02734,5.852422 -0.144942,6.35742 -0.153798,0.450809 -0.382892,0.81771 -0.722846,1.157664 -0.382014,0.382014 -0.869957,0.662166 -1.395367,0.801147 -0.259633,0.06868 -0.286897,0.06942 -2.684172,0.07257 -1.332031,0.0018 -3.342969,-0.0055 -4.46875,-0.01603 z m 2.03125,-2.002319 c 0,-0.02404 -0.554667,-0.03083 -1.9140625,-0.02344 -1.9032,0.01035 -1.9148869,0.01002 -2.0593222,-0.05674 -0.1483422,-0.06857 -0.4641153,-0.346764 -0.4641153,-0.408876 0,-0.01891 -0.016587,-0.03992 -0.03686,-0.04668 C 7.084583,18.429236 7.070949,18.299097 7.060452,17.734374 7.044088,16.853954 7.025858,9.3657171 7.037229,8.1953115 L 7.0483869,7.046875 h 4.9515941 4.951595 l 0.0091,1.1171875 c 0.005,0.6144531 0.01251,2.3325735 0.01674,3.8180455 0.0042,1.485471 0.01456,2.707737 0.02297,2.716145 0.0084,0.0084 0.01529,-1.723774 0.01529,-3.849295 V 6.984375 h -5.01596 -5.0159591 l 0.00815,5.632812 L 7,18.25 7.08165,18.421875 c 0.1302744,0.27423 0.3414272,0.456528 0.6371,0.550037 0.1665331,0.05267 3.890625,0.06211 3.890625,0.0099 z m 4.5625,0.008 c 0,-0.01421 -1.019531,-0.02801 -2.265625,-0.03066 -1.463963,-0.0031 -2.265625,0.006 -2.265625,0.02583 0,0.01977 0.804947,0.03066 2.265625,0.03066 1.246094,0 2.265625,-0.01162 2.265625,-0.02583 z m 0.305932,-0.09611 c 0.171235,-0.08778 0.348085,-0.277185 0.440543,-0.471812 L 17,18.25 17.0032,16.9375 c 0.0026,-1.040848 -0.0014,-1.183142 -0.01906,-0.6875 -0.01227,0.34375 -0.03095,0.786719 -0.04151,0.984375 -0.01169,0.218841 -0.0085,0.328824 0.0081,0.28125 0.01886,-0.05391 0.02796,0.02842 0.02934,0.265625 0.0014,0.2343 -0.01149,0.368124 -0.04039,0.420301 -0.02332,0.0421 -0.03533,0.09495 -0.02671,0.117428 0.0086,0.02248 -0.0091,0.07944 -0.03946,0.126575 -0.08695,0.135128 -0.297867,0.381633 -0.321193,0.375388 -0.026,-0.007 -0.224287,0.09679 -0.224287,0.11736 0,0.02562 0.03027,0.0166 0.149682,-0.04462 z m -5.469876,-5.87025 0.0079,-4.007812 H 10.015743 9.015625 v 4.016064 4.016064 l 0.992187,-0.0083 L 11,17.03125 Z M 14,17.015625 l -1,-0.01695 0.971499,-0.0072 0.971499,-0.0072 0.02064,-1.101563 c 0.01135,-0.605859 0.02066,-2.398828 0.02069,-3.984375 l 4.8e-5,-2.882812 H 13.979502 12.97463 l 0.01956,4.007812 c 0.01076,2.204297 0.01998,4.011329 0.0205,4.015625 5.15e-4,0.0043 0.447421,0.0046 0.993124,6.63e-4 L 15,17.032572 Z"
     id="path1235" />
  <path
     style="fill:#000000;fill-opacity:0;stroke:#000000;stroke-width:0.03125;stroke-opacity:1"
     d="M 9.5625,20.984945 C 7.5669178,20.967193 7.4921081,20.964384 7.2567569,20.89837 6.2013331,20.602331 5.4028521,19.804249 5.100554,18.743243 L 5.03125,18.5 5.0228718,12.744484 5.0144936,6.9889688 4.3822468,6.9788594 C 3.763876,6.9689719 3.7461177,6.9668435 3.573108,6.8818818 3.3690973,6.7816961 3.1935136,6.6013649 3.0985088,6.3944501 2.995344,6.1697632 3.004043,5.8054023 3.1181182,5.573108 3.2179042,5.369911 3.3830192,5.2084531 3.6072141,5.094845 L 3.7635473,5.015625 H 5.3895861 7.015625 V 4.609375 4.203125 H 8 8.984375 v 0.40625 0.40625 H 12 15.015625 V 4.609375 4.203125 H 16 16.984375 v 0.4051886 0.4051887 l 1.632812,0.00887 1.632813,0.00887 0.176892,0.086868 c 0.204011,0.1001856 0.379595,0.2805169 0.474599,0.4874316 0.09292,0.2023718 0.09292,0.5865285 0,0.7889003 -0.095,0.2069148 -0.270588,0.387246 -0.474599,0.4874317 -0.173159,0.085035 -0.190341,0.087083 -0.814112,0.097035 L 18.975559,6.9890832 18.98778,12.744542 19,18.5 18.93013,18.745443 c -0.09515,0.334252 -0.318456,0.795402 -0.510827,1.054898 -0.389504,0.525412 -1.008846,0.943958 -1.669306,1.128102 -0.248411,0.06926 -0.265494,0.06972 -2.6875,0.07228 -1.340625,0.0014 -3.365625,-0.0057 -4.5,-0.01577 z M 8.03125,18.98565 C 7.7169737,18.960132 7.5358766,18.88006 7.3078806,18.665809 7.210835,18.574614 7.1464103,18.528125 7.1647147,18.5625 c 0.018304,0.03438 0.080138,0.106243 0.1374078,0.159707 0.2120656,0.197972 0.4565206,0.29004 0.7603775,0.286378 l 0.21875,-0.0026 -0.25,-0.0203 z m 2.507812,0.0066 c -0.408203,-0.0049 -1.0761714,-0.0049 -1.4843745,0 -0.4082031,0.0049 -0.074219,0.009 0.7421875,0.009 0.816406,0 1.150391,-0.004 0.742187,-0.009 z m 1.046875,0.0027 c -0.02148,-0.0087 -0.05664,-0.0087 -0.07813,0 -0.02148,0.0087 -0.0039,0.01576 0.03906,0.01576 0.04297,0 0.06055,-0.0071 0.03906,-0.01576 z m 0.15625,0 c -0.02148,-0.0087 -0.05664,-0.0087 -0.07813,0 -0.02148,0.0087 -0.0039,0.01576 0.03906,0.01576 0.04297,0 0.06055,-0.0071 0.03906,-0.01576 z m 2.986606,-0.0027 c -0.492913,-0.0048 -1.308538,-0.0048 -1.8125,-8e-6 -0.503961,0.0048 -0.100668,0.0088 0.896207,0.0088 0.996875,5e-6 1.409207,-0.0039 0.916293,-0.0088 z m 1.434619,0.0045 c -0.01038,-0.01038 -0.03734,-0.01149 -0.0599,-0.0025 -0.02493,0.01 -0.01752,0.01738 0.01888,0.01888 0.03294,0.0014 0.0514,-0.006 0.04102,-0.01641 z M 7.0436634,16.890625 C 7.0315822,16.091406 7.0203309,13.542578 7.0186612,11.226562 L 7.015625,7.015625 h 4.984205 4.984205 l 0.0082,2.7578125 0.0082,2.7578125 0.0076,-2.7734375 0.0076,-2.7734375 H 11.997956 6.9802862 l 0.010703,5.632812 c 0.00905,4.764666 0.021705,5.814458 0.069123,5.735723 0.00303,-0.005 -0.00437,-0.663066 -0.016449,-1.462285 z m 9.9397546,1.328125 c 0,-0.05175 -0.0052,-0.05444 -0.03029,-0.01563 -0.01666,0.02578 -0.03029,0.075 -0.03029,0.109375 0,0.05175 0.0052,0.05444 0.03029,0.01563 0.01666,-0.02578 0.03029,-0.075 0.03029,-0.109375 z m -5.988526,-2.257813 c 0.01135,-0.580078 0.02065,-2.380078 0.02068,-4 l 5e-5,-2.945312 h -1 -1 v 4 4 H 9.9949428 10.974261 Z M 14.956617,15.6875 c 0.01051,-0.704688 0.02106,-2.494141 0.02344,-3.976563 l 0.0043,-2.695312 h -1 -1 l 2.2e-5,1.476562 c 1.1e-5,0.81211 0.0094,2.605279 0.02077,3.98482 l 0.02075,2.508256 0.95579,-0.0083 0.95579,-0.0083 z m 2.050141,0.02344 c -0.0072,-0.04726 -0.01302,-0.0086 -0.01302,0.08594 0,0.09453 0.0059,0.133203 0.01302,0.08594 0.0072,-0.04726 0.0072,-0.124609 0,-0.171875 z m -0.001,-1.076171 c -0.01,-0.02493 -0.01738,-0.01753 -0.01888,0.01888 -0.0014,0.03294 0.006,0.0514 0.01641,0.04102 0.01038,-0.01038 0.01149,-0.03734 0.0025,-0.0599 z m 1.88e-4,-0.205079 c -0.0079,-0.03008 -0.01429,-0.0055 -0.01429,0.05469 0,0.06016 0.0064,0.08477 0.01429,0.05469 0.0079,-0.03008 0.0079,-0.0793 0,-0.109375 z"
     id="path1237" />
  <path
     style="fill:#000000;fill-opacity:0;stroke:#000000;stroke-width:0.03125;stroke-opacity:1"
     d="M 9.40625,20.983303 C 8.340625,20.972915 7.4335937,20.953528 7.390625,20.940221 6.9882853,20.815616 6.8785962,20.775222 6.69361,20.683535 5.8721111,20.276366 5.306386,19.564575 5.069923,18.640625 5.0437228,18.538251 5.0293184,16.935971 5.0169667,12.75 L 5,7 4.359375,6.9842081 C 3.7407729,6.9689592 3.7133786,6.9655606 3.5625,6.8853456 3.3751615,6.7857466 3.2050668,6.6133945 3.1050999,6.421875 3.0438975,6.3046218 3.0317088,6.2345064 3.0317618,6 3.0318171,5.7557857 3.0427485,5.6981746 3.1147753,5.5625 3.2141113,5.3753839 3.3863322,5.205291 3.578125,5.1048758 L 3.71875,5.03125 5.359375,5.015625 7,5 7.0087462,4.6015625 7.0174922,4.203125 H 8.0009337 8.984375 v 0.40625 0.40625 H 12 15.015625 v -0.40625 -0.40625 h 0.983441 0.983442 l 0.0087,0.3984375 L 17,5 18.640625,5.015625 20.28125,5.03125 20.4375,5.1144876 c 0.187427,0.099846 0.357492,0.2722298 0.4574,0.4636374 0.0612,0.1172532 0.07339,0.1873686 0.07334,0.421875 -6.2e-5,0.2442142 -0.01099,0.3018254 -0.08301,0.4375 -0.09934,0.1871161 -0.271557,0.357209 -0.46335,0.4576242 -0.132406,0.069323 -0.178796,0.074218 -0.793724,0.083752 l -0.653099,0.010126 0.02299,5.7145568 c 0.01524,3.78889 0.01245,5.749414 -0.0083,5.817998 -0.0172,0.05689 -0.06205,0.208911 -0.09967,0.337817 -0.266036,0.911608 -0.978103,1.660776 -1.887447,1.985788 -0.15865,0.0567 -0.39743,0.118254 -0.530622,0.13678 -0.256728,0.03571 -3.478618,0.03633 -7.065769,0.0014 z M 8.7578125,18.992655 c -0.081641,-0.0064 -0.2152344,-0.0064 -0.296875,0 -0.081641,0.0064 -0.014844,0.0117 0.1484375,0.0117 0.1632812,0 0.2300781,-0.0053 0.1484375,-0.0117 z m 2.3749995,0 c -0.08164,-0.0064 -0.215234,-0.0064 -0.296875,0 -0.08164,0.0064 -0.01484,0.0117 0.148438,0.0117 0.163281,0 0.230078,-0.0053 0.148437,-0.0117 z m 1.40625,-1.25e-4 c -0.09883,-0.0062 -0.260546,-0.0062 -0.359375,0 -0.09883,0.0062 -0.01797,0.01128 0.179688,0.01128 0.197656,0 0.278516,-0.0051 0.179687,-0.01128 z m 2.923016,9.4e-5 c -0.08961,-0.0063 -0.244294,-0.0063 -0.34375,-1.25e-4 -0.09946,0.0062 -0.02614,0.01137 0.162922,0.01144 0.189062,6.2e-5 0.270435,-0.005 0.180828,-0.01131 z m -7.852703,-0.08329 c 0,-0.0069 -0.045703,-0.04123 -0.1015625,-0.07629 -0.055859,-0.03506 -0.14375,-0.09583 -0.1953125,-0.135041 -0.055159,-0.04195 -0.076407,-0.04951 -0.051617,-0.01837 0.0368,0.04622 0.3104906,0.242241 0.338225,0.242241 0.00565,0 0.010268,-0.0056 0.010267,-0.01254 z M 7.0500369,18.212115 c -0.030019,-0.05158 -0.032584,-0.05087 -0.033462,0.0092 -0.00106,0.07234 0.038601,0.128743 0.055298,0.07865 0.00587,-0.01761 -0.00396,-0.05717 -0.021836,-0.08789 z m -0.011075,-1.188678 c -0.00544,-0.201953 -0.0099,-0.03672 -0.0099,0.367188 0,0.403906 0.00445,0.569141 0.0099,0.367187 0.00544,-0.201953 0.00544,-0.532421 0,-0.734375 z m 3.9596831,-3.640625 c 0.01205,-1.998046 0.01729,-3.7945308 0.01164,-3.992187 L 11,9.03125 10.007812,9.0229984 9.015625,9.0147472 v 4.0004388 4.000439 H 9.9961772 10.97673 Z m 3.474957,3.581097 0.442351,-0.02024 0.01871,-0.09355 c 0.01029,-0.05145 0.02797,-1.835264 0.03929,-3.964024 l 0.02058,-3.870472 h -1.009185 -1.009186 l 0.01998,3.210937 c 0.01099,1.766016 0.02869,3.558985 0.03932,3.984375 l 0.01934,0.773438 0.488216,-1.25e-4 c 0.268519,-6.3e-5 0.687274,-0.0092 0.930568,-0.02035 z"
     id="path1239" />
  <path
     style="fill:#000000;fill-opacity:0;stroke:#000000;stroke-width:0.03125;stroke-opacity:1"
     d="M 8.890625,20.984988 7.40625,20.965651 7.0904037,20.856095 C 6.1280425,20.522283 5.4332296,19.806964 5.1053936,18.8125 l -0.072113,-0.21875 -0.01664,-5.770835 C 5.0074881,9.6489556 4.9891227,7.0412032 4.9758282,7.0279098 4.9625338,7.0146163 4.6742526,6.995574 4.3352032,6.9855935 3.6128089,6.9643286 3.5286007,6.938038 3.2673649,6.6522044 2.8368931,6.1811996 2.9671208,5.4547367 3.5426802,5.1163847 L 3.6875,5.03125 5.3177313,5.015625 C 6.2143584,5.007035 6.9581528,4.9898 6.9706075,4.977332 6.9830625,4.964865 7.0002165,4.7855679 7.0087285,4.5788945 L 7.0242044,4.203125 H 8.0033559 8.9825078 L 8.9912537,4.6015625 9,5 h 3 3 L 15.0087,4.6015625 15.0174,4.203125 h 0.979152 0.979152 l 0.01548,0.3757697 c 0.0085,0.2066734 0.02567,0.3859702 0.03812,0.3984375 0.01245,0.012467 0.75625,0.029699 1.652877,0.038293 l 1.630231,0.015625 0.14482,0.085135 c 0.575559,0.338352 0.705787,1.0648149 0.275315,1.5358197 -0.26539,0.2903791 -0.342698,0.3138947 -1.09201,0.3321706 L 19,7 l 0.01183,5.71875 0.01183,5.71875 -0.07834,0.265625 c -0.176681,0.599042 -0.39511,0.99137 -0.770987,1.384796 -0.367087,0.384226 -0.84725,0.674874 -1.392239,0.842737 -0.218559,0.06732 -0.234005,0.06765 -3.313333,0.07065 -1.701563,0.0017 -3.7617188,-0.0057 -4.578125,-0.01632 z M 8.4134115,18.996745 c -0.010384,-0.01038 -0.037338,-0.01149 -0.059896,-0.0025 -0.024929,0.01 -0.017524,0.01738 0.01888,0.01888 0.032942,0.0014 0.0514,-0.006 0.041016,-0.01641 z m 0.453776,-0.0018 c -0.021484,-0.0087 -0.056641,-0.0087 -0.078125,0 -0.021484,0.0087 -0.00391,0.01576 0.039063,0.01576 0.042969,0 0.060547,-0.0071 0.039063,-0.01576 z m 1.9212245,0.0018 c -0.01038,-0.01038 -0.03734,-0.01149 -0.0599,-0.0025 -0.02493,0.01 -0.01753,0.01738 0.01888,0.01888 0.03294,0.0014 0.0514,-0.006 0.04102,-0.01641 z m 0.46875,0 c -0.01038,-0.01038 -0.03734,-0.01149 -0.0599,-0.0025 -0.02493,0.01 -0.01753,0.01738 0.01888,0.01888 0.03294,0.0014 0.0514,-0.006 0.04102,-0.01641 z m 0.860025,-0.0018 c -0.02148,-0.0087 -0.05664,-0.0087 -0.07813,0 -0.02148,0.0087 -0.0039,0.01576 0.03906,0.01576 0.04297,0 0.06055,-0.0071 0.03906,-0.01576 z m 0.5625,0 c -0.02148,-0.0087 -0.05664,-0.0087 -0.07813,0 -0.02148,0.0087 -0.0039,0.01576 0.03906,0.01576 0.04297,0 0.06055,-0.0071 0.03906,-0.01576 z m 2.375,0 c -0.02148,-0.0087 -0.05664,-0.0087 -0.07813,0 -0.02148,0.0087 -0.0039,0.01576 0.03906,0.01576 0.04297,0 0.06055,-0.0071 0.03906,-0.01576 z m 0.53125,0 c -0.02148,-0.0087 -0.05664,-0.0087 -0.07813,0 -0.02148,0.0087 -0.0039,0.01576 0.03906,0.01576 0.04297,0 0.06055,-0.0071 0.03906,-0.01576 z M 7.0380494,17.898867 c -0.00718,-0.0475 -0.013252,-0.01605 -0.013487,0.06988 -2.187e-4,0.08594 0.00564,0.124803 0.01306,0.08637 0.00742,-0.03843 0.00761,-0.108748 4.25e-4,-0.15625 z M 10.976682,13.026528 10.984613,9.0530553 10.632932,9.03237 C 10.439507,9.0209931 10,9.0160869 9.65625,9.0214672 l -0.625,0.00978 L 9.02332,13.02388 9.01539,17.016513 9.9920715,17.008213 10.96875,17 Z m 3.417745,3.926724 0.519427,-1.25e-4 0.0191,-0.398438 c 0.01051,-0.21914 0.02828,-2.005078 0.03949,-3.96875 l 0.02039,-3.5703121 h -0.986765 c -0.600455,0 -0.994062,0.011809 -1.005406,0.030164 -0.02481,0.040147 0.04146,7.8743731 0.06696,7.9156351 0.01298,0.021 0.156228,0.02517 0.413612,0.01204 0.216567,-0.01105 0.627501,-0.02014 0.913186,-0.02021 z m -7.3567479,-0.22669 c -0.00745,-0.03867 -0.013543,-0.007 -0.013543,0.07031 0,0.07734 0.00609,0.108984 0.013543,0.07031 0.00745,-0.03867 0.00745,-0.101953 0,-0.140625 z"
     id="path1241" />
  <path
     style="fill:#000000;fill-opacity:0;stroke:#000000;stroke-width:0.03125;stroke-opacity:1"
     d="M 8.515625,20.98597 7.40625,20.967908 7.1175909,20.867497 C 6.5854531,20.682392 6.2569287,20.480429 5.88825,20.11175 5.4995663,19.723066 5.2143288,19.234595 5.0839463,18.734375 5.0247708,18.507344 5.0222303,18.320362 5.0028756,12.767489 4.9918861,9.6146081 4.9797121,7.0321698 4.9758224,7.0287374 4.9719326,7.0253051 4.6804687,7.0090773 4.328125,6.9926757 3.5937357,6.95849 3.5360891,6.9410857 3.2916362,6.6797457 3.0621464,6.4344026 3.0318832,6.3571282 3.0315444,6.015625 3.031299,5.7681221 3.0432683,5.6943505 3.1035162,5.5720352 3.1917881,5.3928258 3.378417,5.2015076 3.5687139,5.0951486 c 0.141278,-0.078962 0.1475177,-0.079524 0.883263,-0.079524 0.4075389,0 1.144049,-0.00929 1.636689,-0.020656 L 6.984375,4.9743138 6.9845937,4.7996569 c 1.25e-4,-0.096061 0.00919,-0.2695788 0.020144,-0.3855944 L 7.0246594,4.203125 h 0.9767093 0.9767094 l 0.022531,0.390625 0.02253,0.390625 h 2.9768579 2.976857 l 0.02253,-0.390625 0.02253,-0.390625 h 0.976709 0.97671 l 0.01992,0.2109375 c 0.01096,0.1160156 0.02002,0.2895331 0.02014,0.3855944 l 2.19e-4,0.1746569 0.895709,0.020656 c 0.492647,0.011361 1.229493,0.020656 1.637442,0.020656 0.72404,0 0.744854,0.00178 0.872886,0.0745 0.179482,0.1019474 0.359442,0.2781609 0.461668,0.4520567 0.07769,0.1321504 0.08543,0.1736346 0.08543,0.4578181 0,0.3586734 -0.0277,0.4309856 -0.260386,0.6797457 -0.244359,0.2612399 -0.307123,0.2807541 -0.989614,0.3076877 -0.326563,0.012887 -0.618359,0.024503 -0.648438,0.025812 -0.05188,0.00226 -0.05469,0.2978442 -0.05469,5.750588 v 5.748208 l -0.106654,0.325587 c -0.175793,0.536646 -0.371107,0.875948 -0.702643,1.220635 -0.390455,0.405944 -0.772201,0.649201 -1.315703,0.838394 L 16.59375,21 13.109375,21.002 c -1.916406,0.0011 -3.9835938,-0.0061 -4.59375,-0.01605 z m 2.429283,-4.014204 c 0.01311,-0.01311 0.02863,-1.799303 0.03447,-3.96932 l 0.01063,-3.9454851 -0.666881,-0.020468 c -0.5661185,-0.017376 -1.2365972,-0.00347 -1.2702788,0.026347 -0.020355,0.018019 -0.046145,7.8532191 -0.026021,7.9056601 0.019834,0.05169 0.083004,0.0544 0.957735,0.04122 0.5150758,-0.0078 0.9472298,-0.02484 0.9603438,-0.03795 z m 3.980159,-0.565516 c 0.01035,-0.292188 0.02441,-2.071094 0.03125,-3.953125 L 14.968747,9.03125 13.992184,9.02853 13.015622,9.02581 v 2.08351 c 0,1.14593 0.0093,2.929783 0.02075,3.964116 l 0.02075,1.880608 0.92456,-0.0083 0.92456,-0.0083 z"
     id="path1243" />
  <path
     style="fill:#000000;fill-opacity:0;stroke:#000000;stroke-width:0.0220971;stroke-opacity:1"
     d="M 9.5127959,21.00339 7.4246212,20.986434 7.2036503,20.907985 C 6.785002,20.759357 6.4781548,20.608067 6.2542689,20.439897 5.6895575,20.015719 5.3149405,19.488286 5.092791,18.804621 L 5.0209889,18.58365 5.0030918,13.998505 C 4.9755581,6.9445134 4.9765934,7.0613281 4.9414202,7.0395974 4.9246867,7.0292592 4.69101,7.013989 4.4221386,7.0056635 3.8499763,6.987947 3.7198437,6.9713969 3.5533453,6.8951715 3.3984131,6.8242411 3.1835733,6.6060943 3.0934221,6.4281687 3.0300612,6.3031176 3.0273009,6.2856611 3.0273009,6.0100152 c 0,-0.2827075 0.0013,-0.290308 0.075614,-0.4419417 C 3.1905891,5.3891783 3.3625665,5.20998 3.558482,5.0933785 l 0.1299474,-0.07734 1.525591,-0.015775 c 0.839075,-0.00868 1.5768285,-0.021701 1.6394521,-0.028943 L 6.9673332,4.958153 6.9809143,4.6887851 C 7.0291344,3.7323751 7.0366989,3.6421933 7.082159,3.4817777 7.1788112,3.1407201 7.3236547,2.8869829 7.5668966,2.6326138 7.8343189,2.3529582 8.1695655,2.158814 8.5542908,2.0608054 l 0.1961556,-0.049971 3.2593206,2.5e-5 3.25932,2.49e-5 0.211465,0.058459 c 0.375278,0.1037451 0.681441,0.2837893 0.939018,0.5522054 0.248376,0.2588287 0.374988,0.4718906 0.484045,0.8145475 0.05347,0.1680076 0.06299,0.2484438 0.09025,0.7623494 0.01676,0.3159884 0.0308,0.6160694 0.03121,0.6668468 l 7.34e-4,0.092323 0.11601,0.013294 c 0.06381,0.00731 0.802124,0.020536 1.640708,0.029387 l 1.524699,0.016093 0.132583,0.075707 c 0.170219,0.097198 0.380947,0.3113914 0.458357,0.4658958 0.121165,0.2418347 0.121762,0.6349852 0.0013,0.8824582 -0.07283,0.1496775 -0.313608,0.3941367 -0.452246,0.4591676 -0.130054,0.061005 -0.329634,0.093729 -0.572939,0.093943 -0.10441,8.84e-5 -0.340281,0.00668 -0.524158,0.014637 l -0.334322,0.014471 0.0045,5.758393 0.0045,5.758394 -0.106233,0.298311 c -0.189133,0.531105 -0.335098,0.797388 -0.620344,1.131694 -0.256752,0.300912 -0.594327,0.561314 -0.976471,0.753238 -0.231833,0.116433 -0.62051,0.256908 -0.748951,0.270684 -0.181409,0.01946 -5.046908,0.02635 -7.0600196,0.01001 z M 7.1511496,18.500418 c -0.021823,-0.02166 -0.024362,-0.01912 -0.01237,0.01237 0.0083,0.02179 0.020654,0.03406 0.027457,0.02725 0.0068,-0.0068 1.41e-5,-0.02463 -0.015087,-0.03962 z m 3.8164394,-5.466915 0.0088,-3.9580042 -0.06335,-0.013702 c -0.03484,-0.00754 -0.468787,-0.016039 -0.9643261,-0.018895 l -0.9009798,-0.00519 -0.013958,3.9841312 -0.013958,3.984132 0.9695105,-0.0072 0.9695104,-0.0072 z m 3.946047,3.544364 c 0.01771,-0.411051 0.05773,-7.5094855 0.04248,-7.5346342 -0.01224,-0.020182 -1.729101,-0.021877 -1.850491,-0.00183 l -0.08633,0.014259 0.01463,3.5376042 c 0.008,1.945683 0.02095,3.721563 0.02868,3.946401 l 0.01405,0.408796 0.910763,-0.006 0.910763,-0.006 z M 7.0320333,16.446341 c -0.00467,-0.05197 -0.00855,-0.01495 -0.00863,0.08228 -8.84e-5,0.09723 0.00374,0.139751 0.00849,0.0945 0.00475,-0.04525 0.00481,-0.124804 1.547e-4,-0.176777 z m 9.9646727,-1.877455 c -0.0071,-0.01763 -0.01229,-0.01239 -0.01335,0.01335 -9.59e-4,0.02329 0.0043,0.03635 0.01161,0.029 0.0073,-0.0073 0.0081,-0.0264 0.0017,-0.04235 z m -4.6e-4,-2.012216 c -0.0061,-0.01519 -0.01114,-0.0028 -0.01114,0.02762 0,0.03038 0.005,0.04281 0.01114,0.02762 0.0061,-0.01519 0.0061,-0.04005 0,-0.05524 z M 4.9981252,7.0434464 c -0.00556,-0.021268 -0.010105,-0.00387 -0.010105,0.03867 0,0.042537 0.00455,0.059938 0.010105,0.03867 0.00556,-0.021268 0.00556,-0.056071 0,-0.07734 z M 14.979067,4.8005921 c 0.0067,-0.1002655 0.01739,-0.3239985 0.02367,-0.4971844 l 0.01141,-0.3148835 H 11.995959 8.9777742 l 0.013426,0.1933495 c 0.00738,0.1063422 0.015898,0.3300405 0.018919,0.4971071 l 0.00549,0.3037578 2.9755988,6.63e-5 2.975599,8.84e-5 z"
     id="path1245" />
  <path
     style="fill:#000000;fill-opacity:0;stroke:#000000;stroke-width:0.0220971;stroke-opacity:1"
     d="M 9.2365823,21.004083 7.4025241,20.988802 7.1373591,20.888373 C 6.6708449,20.711684 6.4798423,20.613061 6.2092814,20.409165 5.9256766,20.195439 5.6248411,19.865885 5.430251,19.555767 5.3295887,19.395341 5.1749159,19.057527 5.0913874,18.815669 l -0.072499,-0.209922 -0.0075,-1.74567 C 4.979756,9.4987517 4.965745,7.0576025 4.9550647,7.0469223 4.9482848,7.0401423 4.6758352,7.0214417 4.3496212,7.0053654 3.7103344,6.9738603 3.6181642,6.9566915 3.4435928,6.8365969 3.3168413,6.7493994 3.1590499,6.5645498 3.0872979,6.4192037 3.0309978,6.3051585 3.0273009,6.2792885 3.0273009,5.9993591 c 0,-0.2956058 6.733e-4,-0.2996012 0.07426,-0.4406296 C 3.1922581,5.3849083 3.3780163,5.1953201 3.5643391,5.0864093 L 3.7036298,5.0049902 4.415077,5.003545 C 5.2456093,5.001855 6.9462155,4.971922 6.9579376,4.958783 6.9623676,4.953813 6.9815926,4.6564084 7.0006506,4.2978832 7.0388686,3.5789394 7.0576566,3.4701328 7.194655,3.1743895 7.4401503,2.6444302 7.9139548,2.2392038 8.474233,2.0800168 c 0.066844,-0.018992 0.1513651,-0.042231 0.1878253,-0.051644 0.03646,-0.00941 1.5379567,-0.017056 3.3366597,-0.016985 2.953363,1.156e-4 3.284344,0.00363 3.414541,0.036261 0.616666,0.1545497 1.097889,0.5306987 1.366548,1.0681652 0.157589,0.3152667 0.178823,0.4295511 0.217569,1.1710211 0.01905,0.3646019 0.0381,0.6669451 0.04234,0.6718734 0.01143,0.013307 1.701361,0.043265 2.531598,0.044878 l 0.722496,0.0014 0.13929,0.081108 c 0.17957,0.1045621 0.393155,0.3217957 0.469189,0.4772041 0.120246,0.2457748 0.120621,0.6125266 8.92e-4,0.8744356 -0.06673,0.1459796 -0.322745,0.40779 -0.455978,0.4663042 -0.150849,0.066251 -0.322369,0.085764 -0.895393,0.1018685 l -0.534443,0.01502 0.0096,5.7331661 0.0096,5.733166 -0.0997,0.30231 c -0.199163,0.603909 -0.462551,1.037308 -0.854796,1.406551 -0.352628,0.33195 -0.696163,0.534364 -1.222141,0.720099 l -0.265002,0.09358 -2.762135,0.0048 c -1.519175,0.0026 -3.587463,-0.0021 -4.5961944,-0.0105 z m 1.6974617,-4.042764 c 0.01,-0.01 0.024,-1.788412 0.03117,-3.952084 l 0.01304,-3.9339495 -0.163729,-0.014442 c -0.09005,-0.00794 -0.521702,-0.011426 -0.9592243,-0.00774 l -0.7954951,0.0067 -0.019223,3.9524365 c -0.016232,3.337412 -0.014513,3.955728 0.011048,3.973587 0.036988,0.02584 1.8557414,0.0022 1.8824134,-0.02451 z m 3.975803,-0.465844 c 0.01423,-0.373586 0.05915,-7.4237056 0.04742,-7.4427641 -0.0111,-0.018034 -1.27359,-0.030482 -1.586514,-0.015643 l -0.351536,0.016671 0.01459,3.2402561 c 0.008,1.782142 0.02113,3.556078 0.02911,3.942082 l 0.01452,0.701825 0.907996,-0.0058 0.907996,-0.0058 z m 0.07002,-11.7943198 c 0.0074,-0.1549558 0.01919,-0.3786888 0.02609,-0.4971844 l 0.01256,-0.2154466 h -3.01921 -3.0192103 l 0.012136,0.2375437 c 0.00667,0.130649 0.018134,0.354382 0.025464,0.4971844 l 0.013328,0.2596408 h 2.9676533 2.967653 z"
     id="path1247" />
  <path
     style="fill:#000000;fill-opacity:0;stroke:#000000;stroke-width:0.0220971;stroke-opacity:1"
     d="M 8.9161746,21.004195 7.380427,20.990924 7.1373591,20.895914 C 6.5619149,20.670986 6.276297,20.499843 5.9403179,20.178645 5.8250559,20.068454 5.6664256,19.893207 5.5878057,19.789207 5.4041931,19.54632 5.1829953,19.106339 5.0848447,18.788776 l -0.077058,-0.24932 -0.022369,-5.731963 C 4.9731146,9.6549135 4.955084,7.0677022 4.9453495,7.0581344 4.935615,7.0485668 4.6591708,7.026005 4.331029,7.0079972 3.5923462,6.9674599 3.5464398,6.9544403 3.3141852,6.719611 3.2289037,6.6333842 3.1294668,6.5081445 3.0932144,6.4413008 3.0289872,6.3228761 3.0273009,6.3118523 3.0273009,6.0104076 c 0,-0.2939672 0.00307,-0.3156173 0.061767,-0.43514 C 3.1729287,5.4044965 3.3269511,5.2387785 3.5175066,5.1142958 L 3.676256,5.0105909 5.0455572,4.9941626 c 0.7531157,-0.00904 1.4920891,-0.022725 1.6421633,-0.030422 L 6.9605824,4.9497475 6.9964196,4.2977988 C 7.0250491,3.776972 7.0419516,3.6105123 7.0804597,3.4701486 7.185304,3.0879884 7.4388153,2.7013258 7.743891,2.4582643 8.0106536,2.2457279 8.2362697,2.1358809 8.5937772,2.0444751 8.765295,2.0006222 8.8289954,1.9997864 11.99942,1.9997864 h 3.230855 l 0.209858,0.053235 c 0.788377,0.1999882 1.379027,0.8140818 1.510931,1.5709009 0.01695,0.097227 0.04318,0.4353127 0.0583,0.751301 l 0.02749,0.5745243 0.271575,0.013933 c 0.149367,0.00766 0.8852,0.021111 1.635185,0.029883 l 1.363609,0.01595 0.121534,0.068196 c 0.160192,0.089888 0.398965,0.3294868 0.472019,0.4736537 0.125024,0.2467213 0.125018,0.6491581 -1.3e-5,0.8961262 -0.09003,0.1778309 -0.343474,0.4179794 -0.505152,0.4786501 -0.14086,0.052859 -0.555852,0.086695 -1.088281,0.088734 -0.242315,9.28e-4 -0.248632,0.00221 -0.250146,0.05067 -0.0013,0.040439 -0.0044,0.042653 -0.01657,0.011861 -0.0083,-0.020822 -0.01228,2.5428253 -0.0089,5.6969934 l 0.0061,5.73485 -0.100639,0.291318 c -0.379157,1.097541 -1.007288,1.737683 -2.088104,2.128034 l -0.23202,0.0838 -3.082543,0.0025 C 11.839109,21.0163 9.7608777,21.0115 8.9162166,21.00416 Z m 1.8672034,-4.029261 0.15468,-0.0044 0.0015,-0.08839 c 8.24e-4,-0.04861 0.0097,-1.824456 0.01967,-3.946317 l 0.01818,-3.85793 -0.218547,-0.014471 C 10.48418,9.0452691 9.2318027,9.0441889 9.1424361,9.062062 l -0.066526,0.013305 -0.013005,0.2684327 c -0.00715,0.1476382 -0.015749,1.9240573 -0.019101,3.9475983 l -0.0061,3.679165 0.1104855,0.01146 c 0.096425,0.01 1.1998064,0.0052 1.6351844,-0.0071 z m 4.097105,-0.07863 c 0.02844,-0.04602 0.04504,-1.323047 0.06057,-4.660043 l 0.01484,-3.1875049 h -0.964831 -0.96483 l 2.49e-4,1.1103789 c 3.98e-4,1.761733 0.04342,6.737454 0.05846,6.761795 0.02149,0.03477 1.773683,0.01074 1.79554,-0.02463 z m 0.09333,-12.1564799 c 0.0077,-0.1276106 0.01769,-0.3463718 0.0221,-0.4861359 l 0.008,-0.2541165 -2.992971,-0.0056 c -1.646133,-0.00308 -2.9999136,0.00189 -3.0084,0.011049 -0.015216,0.016422 0.017833,0.8965555 0.035685,0.950335 0.00732,0.022058 0.6114916,0.02656 2.965344,0.022097 l 2.956148,-0.0056 z"
     id="path1249" />
  <path
     style="fill:#000000;fill-opacity:0;stroke:#000000;stroke-width:0.0110485;stroke-opacity:1"
     d="m 10.940816,15.680646 c 0.0067,-1.029784 0.02502,-5.409084 0.02494,-5.9705564 -7.4e-5,-0.5682209 -0.0016,-0.6208905 -0.01846,-0.6273508 -0.01011,-0.00388 -0.129432,-0.010174 -0.265165,-0.01399 l -0.246787,-0.00694 V 7.6548816 6.2479513 h 5.2709 c 5.014727,0 5.270621,9.397e-4 5.265156,0.019335 -0.0032,0.010634 -0.0092,0.03425 -0.01344,0.052481 -0.02407,0.1037305 -0.104041,0.2323869 -0.224891,0.3617926 -0.138124,0.1479018 -0.253077,0.2271764 -0.387066,0.2669313 -0.132322,0.03926 -0.469174,0.062435 -1.107474,0.076192 -0.08949,0.00193 -0.164824,0.0057 -0.167416,0.00837 -0.02865,0.029584 -0.03074,0.3520589 -0.03005,4.6424918 l 7.12e-4,4.427704 H 16.97441 14.907034 l 0.0076,-0.836927 c 0.01336,-1.476265 0.0282,-4.209896 0.02838,-5.226022 l 1.72e-4,-0.9861442 -0.952937,0.00282 -0.952937,0.00282 0.0023,1.6130872 c 0.0024,1.659668 0.01939,4.321022 0.03214,5.029849 l 0.0072,0.40051 -1.070441,10e-7 -1.070441,1e-6 z m 6.053976,-0.822907 c -0.0028,-0.01075 -0.0053,-0.0046 -0.0055,0.0136 -2.25e-4,0.01823 0.0021,0.02703 0.0051,0.01955 0.003,-0.0075 0.0032,-0.0224 4.1e-4,-0.03315 z m 5.56e-4,-2.154676 c -0.0021,-0.0471 -0.0038,-0.0086 -0.0038,0.08563 0,0.09419 0.0017,0.132721 0.0038,0.08563 0.0021,-0.04709 0.0021,-0.124158 0,-0.171252 z m 2.039224,-5.6126602 c 0.0038,-0.033976 0.0022,-0.058005 -0.004,-0.058005 -0.0058,0 -0.01053,0.028174 -0.01053,0.062608 0,0.075642 0.0056,0.073851 0.0145,-0.0046 z"
     id="path1267" />
  <path
     style="fill:#000000;fill-opacity:0;stroke:#000000;stroke-width:0.0110485;stroke-opacity:1"
     d="m 10.938713,15.575684 c 0.0053,-0.494143 0.02712,-5.475923 0.02701,-6.1692303 l -4.8e-5,-0.3162646 -0.03105,-0.00621 c -0.01708,-0.00342 -0.136403,-0.00976 -0.265165,-0.014092 l -0.234113,-0.00788 V 7.6549779 6.2479513 h 5.270156 c 2.898585,0 5.270155,0.00407 5.270155,0.00904 0,0.024324 -0.03911,0.135951 -0.06697,0.1911571 -0.06061,0.1200966 -0.249567,0.3284348 -0.37806,0.4168404 -0.158772,0.1092381 -0.330575,0.1339333 -1.084141,0.1558356 -0.199951,0.00581 -0.367602,0.014621 -0.372557,0.019575 -0.01603,0.016027 -0.03401,0.2260511 -0.03054,0.3565969 0.0019,0.069882 0.0023,2.0573769 0.0011,4.4166547 l -0.0023,4.289597 h -2.0698 -2.069775 l 0.0037,-0.08563 c 0.0055,-0.127216 0.0247,-3.122576 0.0331,-5.171343 l 0.0073,-1.7932522 -0.945549,0.00339 c -0.520052,0.00186 -0.949689,0.00754 -0.95475,0.012614 -0.01704,0.017082 0.0021,4.9379992 0.02545,6.5287492 l 0.0074,0.505471 H 12.006123 10.93298 Z m 6.056079,-2.662489 c -0.0028,-0.01075 -0.0053,-0.0046 -0.0055,0.0136 -2.25e-4,0.01823 0.0021,0.02703 0.0051,0.01955 0.003,-0.0075 0.0032,-0.0224 4.1e-4,-0.03315 z m 0,-0.276213 c -0.0028,-0.01075 -0.0053,-0.0046 -0.0055,0.0136 -2.25e-4,0.01823 0.0021,0.02703 0.0051,0.01955 0.003,-0.0075 0.0032,-0.0224 4.1e-4,-0.03315 z m 2.046427,-5.5990598 c 3.34e-4,-0.00608 -0.0042,-0.00359 -0.0101,0.00552 -0.0059,0.00912 -0.01044,0.024031 -0.0101,0.033146 6.41e-4,0.017499 0.01906,-0.017741 0.02021,-0.03867 z"
     id="path1269" />
  <path
     style="fill:#000000;fill-opacity:0;stroke:#000000;stroke-width:0.0110485;stroke-opacity:1"
     d="m 10.937291,15.327092 c 0.0039,-0.426888 0.01149,-1.991776 0.01689,-3.477529 0.0054,-1.485753 0.01022,-2.714396 0.01072,-2.730318 8.55e-4,-0.027262 -0.0028,-0.029331 -0.06269,-0.035506 C 10.867231,9.080129 10.74788,9.073829 10.63698,9.06973 L 10.435344,9.06228 V 7.655115 6.2479513 H 15.7055 c 4.580303,0 5.270155,0.00208 5.270155,0.015914 0,0.036994 -0.06165,0.1830455 -0.106849,0.253118 -0.06563,0.1017557 -0.244206,0.2837842 -0.343649,0.3502954 -0.168541,0.112727 -0.333499,0.1347123 -1.203683,0.1604239 -0.273124,0.00807 -0.249901,-1.53e-4 -0.26288,0.093083 -0.01246,0.08953 -0.01373,0.4877285 -0.01509,4.7591594 l -0.0013,4.223306 H 16.970032 14.8979 l 0.0063,-0.20716 c 0.0066,-0.216224 0.02216,-2.566737 0.03482,-5.264631 l 0.0074,-1.5771793 h -0.386537 c -0.212595,0 -0.640919,0.0033 -0.95183,0.00733 l -0.565292,0.00733 2.65e-4,1.3709753 c 2.6e-4,1.351097 0.01339,3.647521 0.02848,4.981088 l 0.0077,0.682247 h -1.07453 -1.07453 l 0.0071,-0.77616 z"
     id="path1271" />
  <path
     style="fill:#000000;fill-opacity:0;stroke:#000000;stroke-width:0.0110485;stroke-opacity:1"
     d="m 10.93636,15.072975 c 0.0039,-0.566652 0.0097,-1.751194 0.01286,-2.632315 0.0031,-0.881121 0.0082,-1.995457 0.01136,-2.4763008 l 0.0057,-0.8742619 -0.102483,-0.00663 c -0.05636,-0.00364 -0.175817,-0.00982 -0.265449,-0.013719 l -0.162966,-0.00709 V 7.655305 6.2479513 h 5.270156 5.270155 l -3.8e-4,0.024859 c -6.04e-4,0.039445 -0.05804,0.1748471 -0.104563,0.246512 -0.02343,0.036085 -0.105106,0.1281841 -0.18151,0.2046644 -0.115052,0.1151665 -0.153151,0.1460621 -0.22178,0.1798437 -0.101285,0.049856 -0.239282,0.079547 -0.441349,0.094959 -0.14398,0.010981 -0.654453,0.031775 -0.853141,0.034752 -0.08716,0.00131 -0.09645,0.00354 -0.10383,0.025004 -0.01642,0.047751 -0.02446,1.7174334 -0.02569,5.3351576 l -0.0013,3.709548 h -2.072963 -2.072963 l 0.0071,-0.367364 c 0.009,-0.465684 0.02742,-3.612323 0.03132,-5.350257 l 0.003,-1.3258251 -0.939126,0.00419 c -0.51652,0.0023 -0.943677,0.00683 -0.949239,0.010067 -0.01678,0.00976 0.01205,6.4177391 0.03106,6.9048971 l 0.0049,0.124296 h -1.077996 -1.077996 z"
     id="path1273" />
  <path
     style="fill:#000000;fill-opacity:0;stroke:#000000;stroke-width:0.0110485;stroke-opacity:1"
     d="m 10.932473,15.780082 c -3.3e-5,-0.177743 0.0049,-1.382173 0.01093,-2.676509 0.02049,-4.3887963 0.0204,-4.0042271 9.51e-4,-4.0101881 -0.01357,-0.00416 -0.433988,-0.027964 -0.495192,-0.028038 -0.01098,-1.33e-5 -0.01381,-0.2891291 -0.01381,-1.408706 V 6.2479513 h 5.270156 c 5.113604,0 5.270155,6.05e-4 5.270155,0.020367 0,0.026555 -0.03542,0.1290339 -0.06386,0.1847994 -0.03606,0.070685 -0.105986,0.1577359 -0.215228,0.2679422 -0.19961,0.2013722 -0.311885,0.2493121 -0.649501,0.2773306 -0.128392,0.010655 -0.564191,0.029421 -0.846625,0.036456 l -0.123462,0.00308 -0.008,0.033146 c -0.01305,0.054234 -0.01352,0.1553008 -0.02197,4.6818205 l -0.0081,4.350364 H 16.967501 14.89608 l 0.0074,-0.582811 c 0.01508,-1.18861 0.03272,-4.942296 0.02925,-6.2258541 l -6.19e-4,-0.2292573 -0.820354,5.52e-5 c -0.451195,2.21e-5 -0.87701,0.00331 -0.946255,0.0073 l -0.125901,0.00725 0.0074,1.9013322 c 0.009,2.292755 0.02576,4.644022 0.03517,4.920346 l 0.0069,0.201631 H 12.01081 10.93255 l -6.1e-5,-0.32317 z"
     id="path1275" />
  <path
     style="fill:#000000;fill-opacity:0;stroke:#000000;stroke-width:0.0110485;stroke-opacity:1"
     d="m 10.925532,16.083917 c 0.003,-0.01063 0.01176,-1.584604 0.01936,-3.497711 0.01138,-2.8634231 0.01127,-3.4799541 -6.18e-4,-3.4873023 -0.0079,-0.00491 -0.09214,-0.012089 -0.187107,-0.015954 -0.09497,-0.00387 -0.206223,-0.00992 -0.247241,-0.013445 l -0.07458,-0.00642 v -1.407568 -1.407568 h 5.27161 5.27161 l -0.0056,0.042008 c -0.0083,0.061999 -0.07658,0.2019831 -0.136429,0.2797597 -0.07328,0.095239 -0.234636,0.2530878 -0.309496,0.3027765 -0.162598,0.1079269 -0.336733,0.1319906 -1.151388,0.1591099 -0.159932,0.00532 -0.294172,0.013062 -0.298311,0.017196 -0.0173,0.017283 -0.02189,0.7162865 -0.02297,3.4979642 -6.22e-4,1.613876 -0.0044,3.524307 -0.0085,4.245403 l -0.0074,1.311083 h -2.071306 -2.071305 l 0.0076,-0.759587 c 0.0119,-1.187165 0.02817,-4.226786 0.02839,-5.304644 l 1.99e-4,-0.9763761 -0.93084,0.00448 c -0.511962,0.00247 -0.937558,0.00865 -0.945771,0.013736 -0.01248,0.00774 -0.01378,0.2764734 -0.0079,1.6403321 0.01009,2.332739 0.02673,4.742061 0.03514,5.08651 l 0.0072,0.295548 H 12.00489 c -1.028066,0 -1.084699,-0.001 -1.079454,-0.01934 z"
     id="path1277" />
  <path
     style="fill:#000000;fill-opacity:0;stroke:#000000;stroke-width:0.0110485;stroke-opacity:1"
     d="m 10.927118,15.630927 c 0.0067,-0.516966 0.02885,-5.53112 0.02713,-6.1473687 l -0.0011,-0.3827911 -0.04623,-0.00626 c -0.02543,-0.00345 -0.120809,-0.00911 -0.21196,-0.012598 -0.09115,-0.00348 -0.186858,-0.00894 -0.212684,-0.012132 l -0.04696,-0.0058 V 7.6559637 6.2479513 h 5.27161 5.27161 l -0.0062,0.046554 c -0.0034,0.025604 -0.02867,0.091481 -0.05608,0.1463932 -0.07462,0.1494777 -0.259976,0.3515042 -0.409522,0.4463439 -0.146572,0.092953 -0.325135,0.1166109 -1.099955,0.1457338 -0.175197,0.00659 -0.319785,0.016677 -0.325932,0.022748 -0.01886,0.018625 -0.02529,1.2140532 -0.02651,4.9264208 -6.38e-4,1.947582 -0.0044,3.671569 -0.0084,3.831083 l -0.0073,0.290024 h -2.075611 -2.075612 l 0.006,-0.08563 c 0.0074,-0.106141 0.0249,-2.682395 0.0348,-5.122833 l 0.0074,-1.8331287 -0.9321,0.00743 c -0.623318,0.00497 -0.935921,0.011247 -0.943633,0.018962 -0.01837,0.018379 -6.11e-4,5.1321247 0.0228,6.5649717 l 0.0074,0.450228 h -1.084522 -1.084522 z"
     id="path1279" />
  <path
     style="fill:#000000;fill-opacity:0;stroke:#000000;stroke-width:0.0110485;stroke-opacity:1"
     d="m 10.926005,15.404432 c 0.0039,-0.384352 0.01122,-1.93681 0.01628,-3.449908 0.0051,-1.513098 0.0095,-2.7740989 0.0099,-2.8022242 l 7.22e-4,-0.051137 -0.07373,-0.00661 c -0.04055,-0.00363 -0.145818,-0.00949 -0.23393,-0.013018 -0.08811,-0.00353 -0.171391,-0.00871 -0.185063,-0.011522 l -0.02486,-0.00511 V 7.6564301 6.2479513 h 5.270156 5.270155 v 0.027369 c 0,0.045412 -0.05213,0.1693798 -0.103996,0.2473075 -0.06129,0.092093 -0.195766,0.2373812 -0.285747,0.3087308 -0.153993,0.1221063 -0.26517,0.1524413 -0.654345,0.1785396 -0.151768,0.010178 -0.724534,0.03541 -0.809336,0.035654 -0.01977,5.75e-5 -0.03866,0.0045 -0.04198,0.00987 -0.01383,0.022373 -0.01586,0.4531862 -0.02179,4.6173598 -0.0034,2.397258 -0.0087,4.374809 -0.01176,4.394558 l -0.0055,0.03591 H 16.96351 14.885857 l 0.0068,-0.201636 c 0.0071,-0.211315 0.0227,-2.538093 0.0351,-5.244 l 0.0073,-1.5952199 -0.888128,0.00906 c -0.48847,0.00498 -0.910501,0.00937 -0.937846,0.00975 l -0.04972,6.972e-4 -0.0035,0.9833207 c -0.0036,0.99686 0.01704,4.903206 0.02974,5.637531 l 0.0069,0.400522 -1.086801,-1.1e-5 -1.086801,-1.3e-5 z"
     id="path1281" />
  <path
     style="fill:#000000;fill-opacity:0;stroke:#000000;stroke-width:0.0110485;stroke-opacity:1"
     d="m 10.92746,14.88515 c 0.0099,-1.512728 0.02272,-5.3777594 0.01861,-5.6116155 l -0.003,-0.1729701 -0.112973,-0.00698 c -0.06213,-0.00384 -0.17512,-0.010524 -0.251079,-0.014855 l -0.138106,-0.00788 -0.0028,-1.4114515 -0.0028,-1.4114514 h 5.275446 5.275445 l -0.0066,0.035908 c -0.01127,0.06112 -0.06362,0.1766105 -0.114041,0.2515639 -0.02649,0.039383 -0.105762,0.1288866 -0.176159,0.1988963 -0.229211,0.2279476 -0.327486,0.2577654 -0.945588,0.2868999 -0.145841,0.00687 -0.351326,0.016576 -0.456635,0.02156 -0.119898,0.00567 -0.196302,0.013894 -0.204398,0.021989 -0.01312,0.01312 -0.02579,3.2885444 -0.02841,7.3452954 l -0.0011,1.693189 h -2.084124 -2.084124 l 0.0072,-0.350791 c 0.0067,-0.32733 0.01869,-2.154276 0.03502,-5.342356 l 0.0069,-1.3455447 -0.777139,0.00622 c -0.427426,0.00342 -0.847495,0.00906 -0.933487,0.012527 l -0.156348,0.00631 -0.0082,0.1618721 c -0.01439,0.2841149 0.01751,6.5166936 0.03458,6.7550896 l 0.0069,0.09668 h -1.090453 -1.090452 z"
     id="path1283" />
</svg>
